<svg width="20" height="20" viewBox="0 0 20 20" fill="none" xmlns="http://www.w3.org/2000/svg">
<g clip-path="url(#clip0_1289_22640)">
<path d="M15.625 13.125H8.125C7.72625 13.125 7.275 12.7731 7.17812 12.3856L4.65938 2.31125C4.42313 1.36625 3.475 0.625 2.5 0.625H1.25C0.905 0.625 0.625 0.904375 0.625 1.25C0.625 1.59562 0.905 1.875 1.25 1.875H2.5C2.89875 1.875 3.35 2.22688 3.44687 2.61438L5.96562 12.6888C6.20188 13.6337 7.15 14.375 8.125 14.375H15.625C15.97 14.375 16.25 14.0956 16.25 13.75C16.25 13.4044 15.97 13.125 15.625 13.125ZM8.125 15.625C7.09125 15.625 6.25 16.4663 6.25 17.5C6.25 18.5338 7.09125 19.375 8.125 19.375C9.15875 19.375 10 18.5338 10 17.5C10 16.4663 9.15875 15.625 8.125 15.625ZM8.125 18.125C7.78062 18.125 7.5 17.845 7.5 17.5C7.5 17.155 7.78062 16.875 8.125 16.875C8.46938 16.875 8.75 17.155 8.75 17.5C8.75 17.845 8.46938 18.125 8.125 18.125ZM14.375 15.625C13.3413 15.625 12.5 16.4663 12.5 17.5C12.5 18.5338 13.3413 19.375 14.375 19.375C15.4087 19.375 16.25 18.5338 16.25 17.5C16.25 16.4663 15.4087 15.625 14.375 15.625ZM14.375 18.125C14.0306 18.125 13.75 17.845 13.75 17.5C13.75 17.155 14.0306 16.875 14.375 16.875C14.7194 16.875 15 17.155 15 17.5C15 17.845 14.7194 18.125 14.375 18.125Z" fill="white"/>
<path d="M18.7738 3.73313C18.495 3.34625 18.0312 3.125 17.5 3.125H13.75C13.405 3.125 13.125 3.40438 13.125 3.75C13.125 4.09562 13.405 4.375 13.75 4.375H17.5C17.6225 4.375 17.72 4.40813 17.76 4.46375C17.8 4.51938 17.8006 4.6225 17.7619 4.73812L16.0525 9.86625C15.92 10.2638 15.4181 10.625 15 10.625H8.75C8.405 10.625 8.125 10.9044 8.125 11.25C8.125 11.5956 8.405 11.875 8.75 11.875H15C15.9538 11.875 16.9369 11.1663 17.2381 10.2619L18.9475 5.13375C19.1156 4.62937 19.0519 4.11875 18.7738 3.73313Z" fill="white"/>
<path d="M9.55813 5.80813C9.31375 6.0525 9.31375 6.4475 9.55813 6.69187L11.4331 8.56687C11.555 8.68875 11.715 8.75 11.875 8.75C12.035 8.75 12.195 8.68875 12.3169 8.56687L14.1919 6.69187C14.4363 6.4475 14.4363 6.0525 14.1919 5.80813C13.9475 5.56375 13.5525 5.56375 13.3081 5.80813L12.5 6.61625V3.75C12.5 3.40438 12.22 3.125 11.875 3.125C11.53 3.125 11.25 3.40438 11.25 3.75V6.61625L10.4419 5.80813C10.1975 5.56375 9.8025 5.56375 9.55813 5.80813ZM6.875 4.375H10C10.345 4.375 10.625 4.09562 10.625 3.75C10.625 3.40438 10.345 3.125 10 3.125H6.875C6.53 3.125 6.25 3.40438 6.25 3.75C6.25 4.09562 6.53 4.375 6.875 4.375Z" fill="white"/>
</g>
<defs>
<clipPath id="clip0_1289_22640">
<rect width="20" height="20" fill="white"/>
</clipPath>
</defs>
</svg>
