<svg width="211" height="196" viewBox="0 0 211 196" fill="none" xmlns="http://www.w3.org/2000/svg">
<path d="M30.8991 181.232C72.1009 200.867 138.899 200.873 180.101 181.232C221.303 161.59 221.297 129.758 180.101 110.123C138.905 90.4873 72.1009 90.4873 30.8991 110.123C-10.3027 129.758 -10.2967 161.596 30.8991 181.232Z" fill="#F5F5F5"/>
<path d="M179.958 166.72C187.546 166.72 193.698 163.789 193.698 160.173C193.698 156.558 187.546 153.626 179.958 153.626C172.369 153.626 166.218 156.558 166.218 160.173C166.218 163.789 172.369 166.72 179.958 166.72Z" fill="#EBEBEB"/>
<path d="M27.7725 161.112L32.6335 158.308C35.3475 156.093 37.4132 153.187 38.6125 149.895C40.1133 145.758 39.904 142.613 38.8278 141.034C37.5064 139.091 34.0804 139.432 33.9429 143.522C33.6559 151.582 31.3061 157.172 27.7725 161.112Z" fill="url(#paint0_linear_1392_38402)"/>
<path opacity="0.2" d="M27.7725 161.112L32.6335 158.308C35.3475 156.093 37.4132 153.187 38.6125 149.895C40.1133 145.758 39.904 142.613 38.8278 141.034C37.5064 139.091 34.0804 139.432 33.9429 143.522C33.6559 151.582 31.3061 157.172 27.7725 161.112Z" fill="black"/>
<path d="M27.7723 161.411C27.709 161.41 27.6476 161.389 27.5969 161.351C27.5462 161.314 27.5089 161.261 27.4903 161.2C27.4717 161.14 27.4727 161.075 27.4933 161.015C27.5139 160.955 27.553 160.903 27.6049 160.867C38.8456 153.094 36.6692 142.254 36.6453 142.146C36.637 142.107 36.6366 142.067 36.644 142.027C36.6514 141.988 36.6665 141.95 36.6885 141.917C36.7104 141.883 36.7387 141.854 36.7718 141.831C36.805 141.809 36.8422 141.793 36.8815 141.785C36.9207 141.776 36.9612 141.776 37.0006 141.783C37.0401 141.791 37.0777 141.806 37.1112 141.828C37.1448 141.85 37.1738 141.878 37.1964 141.911C37.2191 141.944 37.2349 141.982 37.2432 142.021C37.2432 142.134 39.5392 153.345 27.9637 161.357C27.9075 161.396 27.8403 161.414 27.7723 161.411Z" fill="white"/>
<path d="M18.0322 166.739C18.0322 166.739 16.3401 165.363 16.7467 163.498C17.1532 161.632 18.2474 160.293 16.376 157.89C14.5045 155.486 13.9843 152.281 16.2205 150.547C17.9245 149.202 20.5852 151.103 21.5419 147.558C22.2474 144.963 22.0083 139.217 25.3147 137.304C28.6211 135.39 30.6958 138.272 30.1757 142.171C29.7213 145.656 29.0755 149.011 29.5778 149.943C30.5464 151.737 32.2026 151.492 32.1248 154.768C32.0591 157.818 29.1712 160.341 29.1712 160.341L18.0322 166.739Z" fill="url(#paint1_linear_1392_38402)"/>
<path d="M23.5866 163.815C23.5135 163.814 23.4431 163.787 23.3882 163.739C23.3334 163.69 23.2977 163.624 23.2876 163.552C22.4326 156.466 24.4834 144.233 26.1576 140.598C26.1717 140.558 26.1942 140.521 26.2238 140.49C26.2533 140.459 26.2891 140.435 26.3288 140.419C26.3684 140.403 26.411 140.396 26.4537 140.398C26.4963 140.4 26.5381 140.411 26.5761 140.43C26.6118 140.447 26.6439 140.47 26.6705 140.498C26.6972 140.527 26.7178 140.561 26.7312 140.597C26.7445 140.634 26.7504 140.673 26.7484 140.712C26.7464 140.752 26.7366 140.79 26.7196 140.825C25.0634 144.413 23.0843 156.682 23.9035 163.456C23.9119 163.534 23.8889 163.613 23.8397 163.674C23.7904 163.736 23.7188 163.776 23.6404 163.785L23.5866 163.815Z" fill="white"/>
<path d="M23.4254 158.296C23.3797 158.298 23.3342 158.288 23.2939 158.266C21.2191 157.256 19.9037 153.65 19.8499 153.483C19.8353 153.446 19.8282 153.406 19.8292 153.366C19.8302 153.326 19.8391 153.287 19.8556 153.25C19.872 153.214 19.8956 153.181 19.925 153.154C19.9543 153.127 19.9888 153.106 20.0264 153.092C20.064 153.079 20.1039 153.073 20.1438 153.075C20.1837 153.077 20.2228 153.087 20.2588 153.104C20.2947 153.122 20.3268 153.146 20.3531 153.177C20.3794 153.207 20.3994 153.242 20.4119 153.28C20.4119 153.316 21.6974 156.807 23.5569 157.71C23.6179 157.74 23.6671 157.789 23.6963 157.85C23.7256 157.911 23.7332 157.981 23.7179 158.047C23.7026 158.113 23.6653 158.172 23.6122 158.214C23.559 158.256 23.4932 158.278 23.4254 158.278V158.296Z" fill="white"/>
<path d="M23.3894 160.688C23.3295 160.688 23.2711 160.669 23.2219 160.635C23.1727 160.601 23.1352 160.553 23.1144 160.496C23.0847 160.423 23.0849 160.342 23.1152 160.269C23.1454 160.196 23.2031 160.138 23.2758 160.108C26.7676 158.709 28.944 154.553 28.9679 154.505C29.0044 154.435 29.0674 154.382 29.1431 154.357C29.2188 154.333 29.3009 154.34 29.3715 154.377C29.4421 154.413 29.4953 154.476 29.5194 154.552C29.5435 154.628 29.5365 154.71 29.5001 154.78C29.4044 154.96 27.1981 159.181 23.521 160.664C23.48 160.683 23.4346 160.691 23.3894 160.688Z" fill="white"/>
<path d="M145.44 128.52C145.44 128.52 142.827 124.287 142.57 119.689C142.313 115.091 143.323 113.178 144.71 112.628C146.098 112.078 146.205 113.77 146.917 114.768C147.628 115.767 149.081 115.199 149.619 112.084C150.157 108.969 152.118 103.713 156.196 102.691C160.68 101.579 158.277 106.84 157.147 108.891C156.017 110.942 155.144 113.74 155.885 114.499C156.627 115.259 157.781 113.854 158.875 115.157C160.208 116.73 156.065 122.392 153.685 123.761L145.44 128.52Z" fill="url(#paint2_linear_1392_38402)"/>
<path d="M149.022 126.744C148.983 126.743 148.944 126.734 148.909 126.717C148.873 126.701 148.841 126.677 148.814 126.648C148.787 126.62 148.767 126.586 148.753 126.549C148.74 126.512 148.734 126.473 148.735 126.434C149.14 119.037 151.447 111.87 155.432 105.626C155.454 105.594 155.483 105.566 155.517 105.545C155.55 105.524 155.588 105.51 155.627 105.504C155.666 105.498 155.706 105.5 155.744 105.509C155.783 105.519 155.819 105.537 155.85 105.561C155.913 105.607 155.955 105.676 155.967 105.753C155.979 105.831 155.961 105.909 155.916 105.973C152.002 112.126 149.737 119.182 149.339 126.463C149.337 126.503 149.327 126.541 149.31 126.577C149.292 126.612 149.268 126.644 149.239 126.67C149.209 126.696 149.175 126.716 149.138 126.729C149.101 126.742 149.061 126.747 149.022 126.744Z" fill="white"/>
<path d="M149.363 123.211C149.313 123.21 149.264 123.198 149.219 123.175C147.545 122.248 146.618 119.498 146.583 119.384C146.569 119.347 146.564 119.307 146.566 119.268C146.568 119.228 146.578 119.19 146.595 119.154C146.613 119.119 146.637 119.087 146.666 119.061C146.696 119.034 146.73 119.014 146.768 119.002C146.843 118.977 146.925 118.983 146.996 119.019C147.066 119.055 147.12 119.118 147.145 119.193C147.145 119.193 148.041 121.842 149.536 122.649C149.604 122.689 149.654 122.753 149.675 122.829C149.696 122.905 149.687 122.986 149.65 123.055C149.623 123.107 149.581 123.149 149.53 123.177C149.479 123.204 149.421 123.216 149.363 123.211Z" fill="white"/>
<path d="M149.655 121.399C149.589 121.399 149.525 121.376 149.473 121.335C149.421 121.294 149.384 121.236 149.368 121.172C149.359 121.134 149.356 121.095 149.362 121.056C149.367 121.018 149.381 120.981 149.401 120.947C149.421 120.914 149.447 120.885 149.479 120.862C149.51 120.839 149.546 120.822 149.584 120.813C153.9 119.719 155.395 117.459 155.407 117.435C155.428 117.402 155.456 117.373 155.488 117.35C155.521 117.327 155.557 117.311 155.596 117.303C155.634 117.294 155.674 117.293 155.713 117.3C155.752 117.307 155.789 117.321 155.823 117.342C155.856 117.364 155.885 117.391 155.908 117.424C155.93 117.456 155.947 117.492 155.955 117.531C155.964 117.57 155.965 117.609 155.958 117.648C155.951 117.687 155.937 117.725 155.915 117.758C155.85 117.86 154.295 120.233 149.733 121.393L149.655 121.399Z" fill="white"/>
<path d="M80.3877 119.229C80.3877 119.229 74.6538 117.83 74.3548 107.091C74.0379 95.5039 75.7599 81.9792 68.9737 80.885C62.1874 79.7909 58.4206 88.0599 58.5043 97.7161C58.582 106.171 61.9901 124.526 80.3638 128.126L80.3877 119.229Z" fill="url(#paint3_linear_1392_38402)"/>
<path opacity="0.2" d="M80.3877 119.229C80.3877 119.229 74.6538 117.83 74.3548 107.091C74.0379 95.5039 75.7599 81.9792 68.9737 80.885C62.1874 79.7909 58.4206 88.0599 58.5043 97.7161C58.582 106.171 61.9901 124.526 80.3638 128.126L80.3877 119.229Z" fill="black"/>
<path d="M80.3877 127.026H80.3339C76.2023 126.272 72.8361 123.994 70.3309 120.263C62.9049 109.184 65.2427 88.4964 66.014 84.885C66.0312 84.8081 66.0776 84.7408 66.1434 84.6973C66.2092 84.6539 66.2892 84.6376 66.3668 84.6518C66.4442 84.6704 66.5115 84.718 66.5549 84.7847C66.5983 84.8515 66.6144 84.9323 66.5999 85.0106C65.8406 88.598 63.5147 109.023 70.8271 119.928C71.8915 121.62 73.2958 123.071 74.9509 124.191C76.606 125.311 78.4757 126.075 80.4415 126.434C80.4805 126.441 80.5177 126.456 80.5509 126.477C80.5841 126.499 80.6127 126.527 80.635 126.56C80.6572 126.593 80.6727 126.63 80.6806 126.669C80.6884 126.707 80.6885 126.747 80.6807 126.786C80.668 126.854 80.6316 126.916 80.5779 126.96C80.5243 127.003 80.4569 127.027 80.3877 127.026Z" fill="white"/>
<path d="M80.388 154.583C74.4627 155.384 64.8424 155.372 59.2878 150.996C53.7333 146.619 54.8932 142.852 57.0277 141.28C59.1623 139.707 61.0158 137.913 57.3446 134.422C53.6735 130.93 47.7781 125.321 45.8648 116.909C43.9515 108.496 44.8962 103.235 48.651 101.483C52.2923 99.7848 53.2549 102.487 55.4851 108.06C57.7153 113.632 62.7318 108.855 67.0247 110.595C71.3177 112.335 71.1443 115.779 71.4134 118.738C71.6824 121.698 73.0995 122.517 75.533 122.517C77.9665 122.517 80.388 123.916 80.388 126.703V154.583Z" fill="url(#paint4_linear_1392_38402)"/>
<path d="M80.388 144.813C80.3624 144.819 80.3359 144.819 80.3103 144.813C80.0532 144.741 73.9246 142.96 64.9979 134.762C55.4911 126.033 51.0068 112.939 50.959 112.807C50.9361 112.732 50.9432 112.651 50.9789 112.58C51.0145 112.51 51.076 112.457 51.1503 112.431C51.2249 112.406 51.3062 112.411 51.3767 112.446C51.4472 112.481 51.5012 112.542 51.527 112.616C51.5689 112.747 56.0113 125.698 65.4044 134.32C74.2056 142.41 80.4059 144.221 80.4717 144.239C80.5094 144.25 80.5446 144.269 80.5752 144.293C80.6058 144.318 80.6312 144.348 80.6501 144.382C80.669 144.417 80.6809 144.455 80.6852 144.494C80.6895 144.533 80.686 144.572 80.675 144.61C80.6556 144.67 80.6171 144.723 80.5654 144.759C80.5136 144.796 80.4514 144.815 80.388 144.813Z" fill="white"/>
<path d="M67.4909 136.843C67.4308 136.844 67.372 136.826 67.3226 136.792C67.2733 136.757 67.2359 136.708 67.2159 136.652C65.2966 131.725 64.8602 121.184 64.8243 120.735C64.8226 120.657 64.8516 120.58 64.9051 120.522C64.9586 120.464 65.0325 120.429 65.1113 120.425C65.1894 120.426 65.2643 120.456 65.3217 120.509C65.379 120.562 65.4148 120.634 65.4222 120.712C65.4222 120.819 65.8706 131.599 67.754 136.437C67.7684 136.473 67.7754 136.513 67.7744 136.552C67.7735 136.592 67.7647 136.631 67.7486 136.667C67.7324 136.703 67.7093 136.736 67.6805 136.763C67.6516 136.79 67.6177 136.811 67.5806 136.825C67.5518 136.836 67.5216 136.842 67.4909 136.843Z" fill="white"/>
<path d="M67.4433 143.928C66.892 143.933 66.341 143.905 65.7931 143.844C65.7538 143.84 65.7159 143.827 65.6814 143.808C65.6469 143.789 65.6166 143.763 65.5922 143.732C65.5677 143.7 65.5497 143.665 65.539 143.627C65.5283 143.589 65.5253 143.549 65.53 143.51C65.5347 143.47 65.5471 143.432 65.5665 143.398C65.5858 143.363 65.6118 143.333 65.6429 143.309C65.674 143.284 65.7096 143.266 65.7477 143.256C65.7857 143.245 65.8256 143.242 65.8648 143.247C65.9186 143.247 71.4851 143.88 74.0382 141.279C74.0648 141.248 74.0976 141.222 74.1345 141.204C74.1715 141.186 74.2118 141.176 74.253 141.174C74.2941 141.172 74.3352 141.178 74.3737 141.193C74.4121 141.208 74.4471 141.231 74.4765 141.259C74.5058 141.288 74.5288 141.323 74.5441 141.361C74.5595 141.4 74.5667 141.441 74.5654 141.482C74.5641 141.523 74.5543 141.563 74.5366 141.601C74.519 141.638 74.4938 141.671 74.4627 141.698C72.6152 143.605 69.3925 143.928 67.4433 143.928Z" fill="white"/>
<path d="M63.1383 30.7086L62.4925 26.9836L59.1682 29.172C58.8644 28.5741 58.4339 28.0497 57.9066 27.6354L59.497 23.3304L56.5075 22.6667L54.3191 26.8521C53.5274 26.9857 52.7598 27.2355 52.0411 27.5935L51.0904 24.4366L47.5389 27.2288L47.772 30.9358C47.0488 31.746 46.3929 32.6138 45.8109 33.5307L42.8812 33.3813L40.8244 37.9911L43.3415 39.0673C43.0788 40.0209 42.9125 40.9984 42.8453 41.9851L39.6465 44.9268L40.2862 48.6578L43.6166 46.4694C43.9186 47.0668 44.3495 47.5896 44.8782 48.0001L43.3176 52.311L46.3072 52.9687L49.4402 49.9194C50.1637 49.8058 49.9843 48.4425 50.7735 48.0539L51.7242 51.1989L55.2698 48.4126L55.1801 46.9537C55.8976 46.1526 58.6121 44.3887 59.1981 43.4679L59.9335 42.2721L61.9903 37.6623L61.0336 35.9283L59.9694 33.6682L63.1383 30.7086ZM52.2862 42.9717C49.5598 45.1122 48.6988 45.5845 48.2384 42.7206C47.778 39.8566 49.3386 35.5038 52.065 33.3573C54.7915 31.2108 55.8318 31.0614 56.3221 33.9194C56.8124 36.7774 55.0187 40.8551 52.2862 42.9717Z" fill="#E0E0E0"/>
<path d="M56.5311 22.6667L60.4115 24.9029L58.2232 29.0763L54.3428 26.8401L56.5311 22.6667Z" fill="#F5F5F5"/>
<path d="M66.3728 29.2197L63.0484 31.408L59.168 29.1719L62.4923 26.9835L66.3728 29.2197Z" fill="#F5F5F5"/>
<path d="M65.841 39.8805L63.3238 38.8103L59.4434 36.5741L61.9605 37.6443L65.841 39.8805Z" fill="#E0E0E0"/>
<path d="M43.311 52.3109L47.1914 54.5411L48.7819 50.2362L44.9015 48L43.311 52.3109Z" fill="#E0E0E0"/>
<path d="M55.5688 53.435L51.6943 51.1988L50.7437 48.0538L54.6241 50.29L55.5688 53.435Z" fill="#E0E0E0"/>
<path d="M67.0127 32.9447L66.3729 29.2198L63.0485 31.4081C62.7426 30.81 62.31 30.2856 61.781 29.8715L63.3714 25.5666L60.4118 24.9029L58.2174 29.0882C57.4257 29.2218 56.6581 29.4716 55.9394 29.8297L54.9947 26.6847L51.4432 29.4769L51.6763 33.1839C50.9523 33.9998 50.2964 34.8737 49.7152 35.7968L46.7795 35.6473L44.7227 40.2572L47.2399 41.3334C46.9795 42.2894 46.8132 43.2687 46.7436 44.2572L43.5508 47.157L44.1905 50.888L47.5149 48.6996C47.821 49.296 48.2536 49.8184 48.7825 50.2302L47.192 54.5352L50.1816 55.1989L52.3699 51.0135C53.1647 50.8814 53.9348 50.6294 54.6539 50.2661L55.5986 53.4111L59.1502 50.6249L58.917 46.9178C59.6402 46.1077 60.2961 45.2398 60.8781 44.3229L63.8139 44.4664L65.8707 39.8566L63.3176 38.7863C63.5823 37.8309 63.7505 36.8515 63.8198 35.8625L67.0127 32.9447ZM56.1726 45.2317C53.4521 47.3723 50.8452 46.7923 50.349 43.9343C49.8527 41.0763 51.6644 37.0165 54.3908 34.876C57.1173 32.7355 59.7182 33.3214 60.2145 36.1794C60.7107 39.0374 58.8991 43.0912 56.1726 45.2317Z" fill="#EBEBEB"/>
<path d="M54.995 26.6727L51.1146 24.4365L47.563 27.2287L51.4434 29.4649L54.995 26.6727Z" fill="#F5F5F5"/>
<path d="M47.563 27.2287L47.7962 30.9357L51.6766 33.1719L51.4434 29.4649L47.563 27.2287Z" fill="#E0E0E0"/>
<path d="M49.7149 35.7668L45.8345 33.5306L42.9048 33.3871L46.7792 35.6233L49.7149 35.7668Z" fill="#F5F5F5"/>
<path d="M42.9054 33.3871L40.8486 37.991L44.7231 40.2272L46.7799 35.6233L42.9054 33.3871Z" fill="#E0E0E0"/>
<path d="M46.7437 44.2213L42.8692 41.9851L39.6704 44.9268L43.5449 47.163L46.7437 44.2213Z" fill="#F5F5F5"/>
<path d="M44.1906 50.8937L40.3102 48.6576L39.6704 44.9266L43.5449 47.1628L44.1906 50.8937Z" fill="#E0E0E0"/>
<path d="M60.4122 24.9029L56.5317 22.6667L59.4974 23.3304L63.3718 25.5666L60.4122 24.9029Z" fill="#F5F5F5"/>
<path d="M45.7633 13.7997V8.23319L41.3328 10.2302C41.0982 9.28577 40.6929 8.39217 40.137 7.59343L42.9293 1.96712L39.5212 0L36.0414 5.23169C35.0716 5.14697 34.0946 5.24224 33.1594 5.51271L32.6692 0.675638L27.85 3.46188L27.3657 8.84305C26.3169 9.77239 25.3525 10.7928 24.4838 11.8924L21.004 10.6966L17.5959 16.6039L20.3822 18.9955C19.8673 20.2975 19.4672 21.6419 19.1864 23.0135L14.7559 26.1286V31.701L19.1864 29.704C19.421 30.6485 19.8263 31.5421 20.3822 32.3408L17.6079 37.9731L21.0159 39.9402L24.4958 34.7085C25.4655 34.793 26.4425 34.6977 27.3777 34.4275L27.862 39.2646L32.6811 36.4783L33.1714 31.0972C34.6755 30.5484 36.008 29.6119 37.0339 28.3827L39.5331 29.2616L42.9412 23.3602L40.8485 21.5665C41.3028 20.0708 41.4712 18.5028 41.3448 16.9447L45.7633 13.7997ZM30.2596 27.707C26.5645 29.8416 24.2805 28.3049 24.2805 24.0538C24.2805 19.8027 27.3358 14.5471 31.0369 12.4126C34.7379 10.278 36.9741 11.8146 36.9741 16.1016C36.9741 20.3886 33.9606 25.5665 30.2596 27.707Z" fill="#E0E0E0"/>
<path d="M43.3953 2.2302L39.5208 0L36.041 5.23169L39.9155 7.46787L43.3953 2.2302Z" fill="#F5F5F5"/>
<path d="M49.6434 10.4693L45.763 8.23315L41.3325 10.2302L45.2129 12.4663L49.6434 10.4693Z" fill="#F5F5F5"/>
<path d="M31.724 41.5006L27.8495 39.2644L27.3652 34.4274L31.2397 36.6635L31.724 41.5006Z" fill="#E0E0E0"/>
<path d="M17.5898 37.9731L21.4703 40.2092L24.2625 34.5829L20.3821 32.3467L17.5898 37.9731Z" fill="#E0E0E0"/>
<path d="M49.6437 16.0658V10.4993L45.2132 12.4784C44.981 11.5331 44.5755 10.639 44.0174 9.84159L46.8096 4.21528L43.4016 2.24219L39.9217 7.47986C38.952 7.39219 37.9744 7.48752 37.0398 7.76087L36.5495 2.91185L31.7304 5.6981L31.2401 11.0793C30.1928 12.0101 29.2285 13.0304 28.3582 14.1286L24.8784 12.9328L21.4703 18.8401L24.2625 21.2317C23.745 22.5327 23.3448 23.8774 23.0667 25.2497L18.6362 28.3648V33.9373L23.0667 31.9403C23.2988 32.8856 23.7043 33.7796 24.2625 34.577L21.4703 40.2033L24.8784 42.1704L28.3582 36.9388C29.328 37.0235 30.305 36.9282 31.2401 36.6577L31.7304 41.4948L36.5495 38.7086L37.0338 33.3274C38.0826 32.3981 39.0471 31.3776 39.9157 30.2781L43.3956 31.4739L46.8036 25.5725L44.0114 23.1809C44.5288 21.8799 44.929 20.5352 45.2072 19.163L49.6437 16.0658ZM34.14 29.9731C30.4389 32.1077 27.4374 30.3737 27.4374 26.1047C27.4374 21.8356 30.427 16.6398 34.14 14.4993C37.853 12.3588 40.8365 14.0987 40.8365 18.3678C40.8365 22.6368 37.835 27.8027 34.14 29.9432V29.9731Z" fill="#EBEBEB"/>
<path d="M24.4837 11.9044L28.3582 14.1405L24.8783 12.9268L21.0039 10.6846L24.4837 11.9044Z" fill="#F0F0F0"/>
<path d="M21.0027 10.6907L17.5938 16.6L21.4729 18.8378L24.8819 12.9285L21.0027 10.6907Z" fill="#F5F5F5"/>
<path d="M17.5898 16.592L21.4703 18.8282L24.2625 21.2317L20.3821 19.0016L17.5898 16.592Z" fill="#E0E0E0"/>
<path d="M19.1859 23.0195L23.0663 25.2557L18.6358 28.3708L14.7554 26.1346L19.1859 23.0195Z" fill="#F5F5F5"/>
<path d="M14.7554 26.1345L18.6358 28.3707V33.9432L14.7554 31.707V26.1345Z" fill="#E0E0E0"/>
<path d="M36.5492 2.91177L32.6687 0.675598L27.8496 3.46184L31.7241 5.69802L36.5492 2.91177Z" fill="#F5F5F5"/>
<path d="M86.2946 162.583L142.498 130.128C142.622 130.085 142.729 130.004 142.805 129.897C142.881 129.79 142.921 129.662 142.921 129.53C142.921 129.399 142.881 129.271 142.805 129.164C142.729 129.057 142.622 128.976 142.498 128.933L137.302 125.943C136.98 125.781 136.625 125.697 136.265 125.697C135.904 125.697 135.549 125.781 135.227 125.943L79.0061 158.368C78.8823 158.411 78.775 158.492 78.6991 158.599C78.6233 158.706 78.5825 158.834 78.5825 158.965C78.5825 159.097 78.6233 159.225 78.6991 159.332C78.775 159.439 78.8823 159.52 79.0061 159.563L84.2199 162.553C84.5393 162.72 84.8934 162.809 85.2537 162.814C85.6139 162.819 85.9704 162.74 86.2946 162.583Z" fill="#E0E0E0"/>
<path d="M140.956 4.825L90.2769 34.0866C89.5236 34.5782 88.8966 35.2404 88.4468 36.0195C87.997 36.7986 87.7371 37.6726 87.688 38.5709V158.792C87.688 160.442 88.8479 161.112 90.2769 160.287L140.956 131.025C141.71 130.535 142.338 129.873 142.788 129.093C143.237 128.314 143.497 127.44 143.544 126.541V6.31977C143.544 4.66954 142.391 3.99989 140.956 4.825Z" fill="#455A64"/>
<path d="M90.2768 34.0865L140.955 4.82493C142.235 4.08352 143.293 4.54391 143.508 5.82941C143.389 5.02119 143.1 4.24744 142.66 3.55904C142.22 2.87065 141.639 2.28322 140.955 1.83539L138.851 0.639578C138.048 0.232523 137.162 0.0203857 136.262 0.0203857C135.362 0.0203857 134.475 0.232523 133.673 0.639578L82.9883 29.8773C82.2249 30.3559 81.5954 31.0204 81.1587 31.8085L88.4472 35.9938C88.8838 35.212 89.5137 34.5552 90.2768 34.0865Z" fill="#37474F"/>
<path d="M80.3872 154.583C80.4363 155.481 80.6963 156.355 81.146 157.134C81.5958 157.913 82.2228 158.575 82.9761 159.067L85.0868 160.263C85.8173 160.628 86.6167 160.835 87.4328 160.87C88.2488 160.905 89.0631 160.768 89.8222 160.466C88.6264 160.933 87.6757 160.245 87.6757 158.768V38.5708C87.7057 37.6688 87.9671 36.7896 88.435 36.0177L81.1466 31.8324C80.6852 32.5984 80.4241 33.4681 80.3872 34.3616V154.583Z" fill="#263238"/>
<path d="M91.6694 50.1046L139.58 22.4514C140.441 21.9611 141.134 22.3617 141.134 23.3483V112.329C141.106 112.868 140.95 113.393 140.68 113.861C140.409 114.328 140.033 114.725 139.58 115.019L91.6874 142.673C90.8264 143.169 90.1328 142.768 90.1328 141.776V52.7952C90.16 52.2576 90.3133 51.734 90.5802 51.2666C90.8471 50.7992 91.2203 50.4012 91.6694 50.1046Z" fill="white"/>
<path d="M115.616 24.0118C115.351 24.1854 115.131 24.4187 114.974 24.6929C114.816 24.967 114.724 25.2744 114.707 25.5903C114.707 26.1882 115.114 26.4094 115.616 26.1165C115.881 25.9439 116.102 25.7109 116.26 25.4365C116.418 25.1621 116.509 24.8542 116.525 24.538C116.525 23.958 116.118 23.7248 115.616 24.0118Z" fill="#37474F"/>
<path d="M115.616 133.1C114.571 133.784 113.701 134.704 113.078 135.787C112.455 136.869 112.095 138.083 112.028 139.33C112.028 141.62 113.637 142.553 115.616 141.405C116.661 140.721 117.53 139.8 118.153 138.718C118.776 137.636 119.136 136.422 119.203 135.175C119.215 132.885 117.601 131.952 115.616 133.1Z" fill="#37474F"/>
<path d="M107.012 33.2674C106.487 33.6163 106.05 34.0837 105.739 34.6321C105.427 35.1805 105.249 35.7944 105.218 36.4244C105.218 37.5843 106.031 38.0567 107.012 37.4767C107.543 37.1312 107.985 36.6652 108.302 36.1166C108.619 35.568 108.802 34.9524 108.836 34.3198C108.836 33.1598 108.022 32.6875 107.012 33.2674Z" fill="#37474F"/>
<path d="M111.479 32.8728C111.479 33.6501 112.076 33.943 112.776 33.5305L124.734 26.6127C125.105 26.3814 125.415 26.0658 125.641 25.6918C125.866 25.3178 126 24.8958 126.032 24.4602C126.032 23.6889 125.434 23.396 124.734 23.8085L112.776 30.7263C112.406 30.9571 112.096 31.2716 111.871 31.6445C111.645 32.0175 111.511 32.4382 111.479 32.8728Z" fill="#37474F"/>
<path d="M84.429 53.955C84.8533 54.2314 85.2065 54.6039 85.46 55.0423C85.7134 55.4806 85.86 55.9726 85.8879 56.4782C85.8879 57.4109 85.2362 57.7876 84.429 57.3212C84.0061 57.0438 83.6543 56.671 83.402 56.2327C83.1496 55.7945 83.0037 55.303 82.9761 54.7981C82.9761 53.8713 83.6278 53.4946 84.429 53.955Z" fill="#37474F"/>
<path d="M84.429 65.1837C84.8533 65.4601 85.2065 65.8326 85.46 66.271C85.7134 66.7094 85.86 67.2013 85.8879 67.7069C85.8879 68.6337 85.2362 69.0104 84.429 68.55C84.0061 68.2726 83.6543 67.8997 83.402 67.4615C83.1496 67.0232 83.0037 66.5318 82.9761 66.0268C82.9761 65.0941 83.6278 64.7174 84.429 65.1837Z" fill="#37474F"/>
<path d="M83.9745 54.1823C84.3988 54.4587 84.752 54.8311 85.0055 55.2695C85.259 55.7079 85.4056 56.1998 85.4334 56.7055C85.4334 57.6322 84.7817 58.0089 83.9745 57.5485C83.5502 57.2721 83.197 56.8996 82.9435 56.4613C82.6901 56.0229 82.5435 55.5309 82.5156 55.0253C82.5216 54.0926 83.1733 53.7339 83.9745 54.1823Z" fill="#455A64"/>
<path d="M83.9745 65.4049C84.3996 65.6819 84.7533 66.0553 85.0068 66.4948C85.2603 66.9343 85.4065 67.4274 85.4334 67.934C85.4334 68.8608 84.7817 69.2375 83.9745 68.7711C83.5492 68.4958 83.1952 68.1236 82.9416 67.685C82.6881 67.2464 82.542 66.7539 82.5156 66.2479C82.5216 65.3212 83.1733 64.9445 83.9745 65.4049Z" fill="#455A64"/>
<path d="M150.833 26.1643C150.833 25.1717 150.139 24.7712 149.278 25.2674L143.545 28.5738L101.386 52.9206C100.933 53.2149 100.556 53.612 100.286 54.0795C100.016 54.5471 99.8603 55.072 99.8315 55.6112V144.568C99.8315 145.56 100.525 145.961 101.386 145.465L143.562 121.112L149.278 117.812C149.731 117.517 150.108 117.12 150.378 116.653C150.648 116.185 150.804 115.66 150.833 115.121V26.1643Z" fill="white"/>
<path d="M151.431 26.1644C151.468 25.8646 151.417 25.5603 151.282 25.2896C151.148 25.019 150.937 24.794 150.675 24.6427C150.413 24.4915 150.113 24.4208 149.811 24.4394C149.51 24.458 149.22 24.5651 148.979 24.7474L143.508 27.9103L101.087 52.4245C100.541 52.7693 100.087 53.2417 99.7637 53.801C99.4408 54.3604 99.2588 54.9899 99.2334 55.6353V144.568C99.2094 144.867 99.2667 145.166 99.3994 145.434C99.5321 145.703 99.735 145.93 99.9867 146.093C100.201 146.217 100.445 146.281 100.692 146.278C101.043 146.267 101.385 146.166 101.685 145.985L144.136 121.471L149.595 118.32C150.138 117.972 150.59 117.499 150.912 116.94C151.235 116.381 151.419 115.753 151.449 115.109L151.431 26.1644ZM143.52 120.448L143.03 120.735L101.111 144.939C101.04 144.993 100.959 145.031 100.872 145.049C100.785 145.068 100.695 145.067 100.609 145.046C100.531 144.999 100.453 144.831 100.453 144.556V55.6114C100.484 55.1772 100.613 54.7558 100.831 54.3788C101.048 54.0018 101.348 53.6791 101.709 53.435L143.586 29.2197L149.565 25.7579C149.636 25.7037 149.717 25.666 149.804 25.6474C149.891 25.6287 149.981 25.6297 150.067 25.6502C150.145 25.6981 150.223 25.8655 150.223 26.1405V115.121C150.192 115.555 150.063 115.977 149.845 116.354C149.628 116.731 149.328 117.053 148.967 117.297L143.508 120.448H143.52Z" fill="url(#paint5_linear_1392_38402)"/>
<path d="M125.332 46.8339C130.713 43.7368 135.048 46.236 135.048 52.4483C135.048 58.6605 130.695 66.2002 125.332 69.2734C119.969 72.3466 115.616 69.8713 115.616 63.665C115.616 57.4587 119.969 49.9371 125.332 46.8339Z" fill="url(#paint6_linear_1392_38402)"/>
<path d="M125.332 51.7129C127.072 50.7084 128.483 51.5215 128.483 53.5066C128.424 54.6001 128.108 55.6644 127.56 56.6128C127.013 57.5613 126.25 58.3673 125.332 58.9655C123.592 59.97 122.181 59.1568 122.181 57.1718C122.24 56.0782 122.556 55.014 123.104 54.0655C123.651 53.1171 124.415 52.311 125.332 51.7129Z" fill="url(#paint7_linear_1392_38402)"/>
<path d="M131.472 62.4274C131.472 59.1269 129.158 57.7876 126.294 59.4378L124.501 60.4722C121.643 62.1225 119.323 66.1404 119.323 69.4408V70.3317C120.979 70.8758 123.06 70.5828 125.302 69.2734C127.786 67.7413 129.886 65.6614 131.442 63.1927L131.472 62.4274Z" fill="url(#paint8_linear_1392_38402)"/>
<path opacity="0.7" d="M125.332 51.7129C127.072 50.7084 128.483 51.5215 128.483 53.5066C128.424 54.6001 128.108 55.6644 127.56 56.6128C127.013 57.5613 126.25 58.3673 125.332 58.9655C123.592 59.97 122.181 59.1568 122.181 57.1718C122.24 56.0782 122.556 55.014 123.104 54.0655C123.651 53.1171 124.415 52.311 125.332 51.7129Z" fill="white"/>
<path opacity="0.7" d="M131.472 62.4274C131.472 59.1269 129.158 57.7876 126.294 59.4378L124.501 60.4722C121.643 62.1225 119.323 66.1404 119.323 69.4408V70.3317C120.979 70.8758 123.06 70.5828 125.302 69.2734C127.786 67.7413 129.886 65.6614 131.442 63.1927L131.472 62.4274Z" fill="white"/>
<path d="M106.534 82.9356L119.036 75.7189C119.634 75.39 120.071 75.6531 120.071 76.3168V76.7293C120.052 77.0887 119.948 77.4384 119.768 77.7501C119.589 78.0619 119.338 78.3267 119.036 78.5231L106.534 85.7398C105.966 86.0687 105.5 85.7996 105.5 85.1419V84.7293C105.519 84.3701 105.623 84.0205 105.802 83.7089C105.982 83.3973 106.233 83.1323 106.534 82.9356Z" fill="url(#paint9_linear_1392_38402)"/>
<path opacity="0.1" d="M106.534 82.9356L119.036 75.7189C119.634 75.39 120.071 75.6531 120.071 76.3168V76.7293C120.052 77.0887 119.948 77.4384 119.768 77.7501C119.589 78.0619 119.338 78.3267 119.036 78.5231L106.534 85.7398C105.966 86.0687 105.5 85.7996 105.5 85.1419V84.7293C105.519 84.3701 105.623 84.0205 105.802 83.7089C105.982 83.3973 106.233 83.1323 106.534 82.9356Z" fill="black"/>
<path d="M106.02 91.6472L143.843 69.8116C144.124 69.6442 144.358 69.7757 144.358 70.1105V74.5231C144.347 74.7022 144.295 74.8764 144.206 75.032C144.117 75.1876 143.993 75.3204 143.843 75.42L106.02 97.2555C105.733 97.4229 105.5 97.2854 105.5 96.9566V92.544C105.51 92.3642 105.562 92.1893 105.653 92.0335C105.743 91.8777 105.869 91.7454 106.02 91.6472Z" fill="url(#paint10_linear_1392_38402)"/>
<path opacity="0.2" d="M106.02 91.6472L143.843 69.8116C144.124 69.6442 144.358 69.7757 144.358 70.1105V74.5231C144.347 74.7022 144.295 74.8764 144.206 75.032C144.117 75.1876 143.993 75.3204 143.843 75.42L106.02 97.2555C105.733 97.4229 105.5 97.2854 105.5 96.9566V92.544C105.51 92.3642 105.562 92.1893 105.653 92.0335C105.743 91.8777 105.869 91.7454 106.02 91.6472Z" fill="white"/>
<path d="M106.534 102.565L119.036 95.3482C119.634 95.0194 120.071 95.2884 120.071 95.9461V96.3587C120.052 96.7181 119.949 97.0681 119.769 97.3799C119.589 97.6917 119.338 97.9564 119.036 98.1524L106.534 105.369C105.966 105.704 105.5 105.435 105.5 104.771V104.359C105.52 104 105.624 103.65 105.804 103.339C105.983 103.027 106.233 102.762 106.534 102.565Z" fill="url(#paint11_linear_1392_38402)"/>
<path opacity="0.1" d="M106.534 102.565L119.036 95.3482C119.634 95.0194 120.071 95.2884 120.071 95.9461V96.3587C120.052 96.7181 119.949 97.0681 119.769 97.3799C119.589 97.6917 119.338 97.9564 119.036 98.1524L106.534 105.369C105.966 105.704 105.5 105.435 105.5 104.771V104.359C105.52 104 105.624 103.65 105.804 103.339C105.983 103.027 106.233 102.762 106.534 102.565Z" fill="black"/>
<path d="M106.02 111.277L143.843 89.4409C144.124 89.2735 144.358 89.411 144.358 89.7399V94.1524C144.347 94.3315 144.295 94.5057 144.206 94.6613C144.117 94.8169 143.993 94.9498 143.843 95.0493L106.02 116.885C105.733 117.052 105.5 116.921 105.5 116.586V112.173C105.51 111.994 105.562 111.819 105.653 111.663C105.743 111.507 105.869 111.375 106.02 111.277Z" fill="url(#paint12_linear_1392_38402)"/>
<path opacity="0.2" d="M106.02 111.277L143.843 89.4409C144.124 89.2735 144.358 89.411 144.358 89.7399V94.1524C144.347 94.3315 144.295 94.5057 144.206 94.6613C144.117 94.8169 143.993 94.9498 143.843 95.0493L106.02 116.885C105.733 117.052 105.5 116.921 105.5 116.586V112.173C105.51 111.994 105.562 111.819 105.653 111.663C105.743 111.507 105.869 111.375 106.02 111.277Z" fill="white"/>
<path d="M121.104 113.782L136.052 105.166C136.65 104.831 137.092 105.1 137.092 105.764V110.38C137.073 110.739 136.968 111.09 136.787 111.401C136.607 111.713 136.355 111.978 136.052 112.173L121.104 120.795C120.506 121.124 120.07 120.855 120.07 120.197V115.575C120.091 115.216 120.195 114.867 120.375 114.556C120.554 114.245 120.804 113.979 121.104 113.782Z" fill="url(#paint13_linear_1392_38402)"/>
<path opacity="0.1" d="M121.104 113.782L136.052 105.166C136.65 104.831 137.092 105.1 137.092 105.764V110.38C137.073 110.739 136.968 111.09 136.787 111.401C136.607 111.713 136.355 111.978 136.052 112.173L121.104 120.795C120.506 121.124 120.07 120.855 120.07 120.197V115.575C120.091 115.216 120.195 114.867 120.375 114.556C120.554 114.245 120.804 113.979 121.104 113.782Z" fill="black"/>
<path d="M156.501 94.3021C156.501 94.3021 149.159 84.1735 148.728 82.9418C148.388 82.033 148.728 80.6817 148.836 80.0539C148.944 79.4261 149.039 78.027 149.147 77.6623C149.326 76.9807 148.447 77.1182 147.951 77.74C147.455 78.3619 147.287 79.6055 147.03 79.8088C146.773 80.0121 144.818 77.1601 143.796 75.8447C142.773 74.5293 142.133 73.7281 141.506 74.2184C141.057 74.5711 141.392 75.3364 142.133 76.4605C142.566 77.0658 142.966 77.6946 143.329 78.3439C143.443 78.5891 142.833 78.607 142.504 79.1152C142.247 79.5098 142.504 80.1496 142.145 80.4545C141.925 80.6226 141.773 80.8659 141.72 81.1383C141.668 81.4106 141.717 81.6929 141.858 81.9314C142.524 82.9766 143.382 83.8856 144.388 84.61C145.488 85.3693 145.93 85.6384 146.582 86.6728C147.234 87.7072 153.081 98.2722 153.476 98.906C153.87 99.5397 154.63 100.831 155.784 100.867C156.938 100.903 166.385 92.7714 166.869 92.3649C168.423 91.0674 168.92 90.882 169.183 92.048C169.274 92.4624 169.342 92.8816 169.386 93.3036C169.571 94.7864 170.582 100.084 170.582 100.084C170.582 100.084 175.365 102.398 179.293 101.28C183.222 100.162 184.549 98.4934 184.549 98.4934L182.582 95.2886C183.114 93.9672 185.571 88.61 186.367 84.8611L174.05 82.8701C173.799 82.8163 173.392 82.7146 172.854 82.5771C172.178 82.3977 170.462 81.8058 169.165 82.9418C164.932 86.6309 156.513 94.3021 156.513 94.3021" fill="#FFD0D0"/>
<path d="M180.92 156.448L178.713 159.516C179.716 159.984 180.812 160.219 181.918 160.203C183.897 160.275 184.441 159.605 184.513 159.474C184.848 158.756 184.328 157.465 184.184 156.353L180.92 156.448Z" fill="#37474F"/>
<path d="M178.839 158.045C178.839 158.045 176.16 157.872 174.313 157.644C172.465 157.417 171 158.314 171.431 159.073C171.861 159.833 172.884 160.467 174.474 160.999C175.831 161.459 177.464 161.788 178.875 162.194C180.286 162.601 181.266 163.133 182.085 162.846C183 162.529 183.395 162.165 183.317 161.495C183.117 160.542 182.87 159.6 182.576 158.673L178.839 158.045Z" fill="#37474F"/>
<path d="M184.513 153.369C184.513 153.369 184.178 156.155 184.154 156.753C184.13 157.351 181.434 157.543 180.92 156.448L180.836 153.04L184.513 153.369Z" fill="#FFD0D0"/>
<path d="M181.799 155.079L182.761 159.312C182.761 159.312 182.851 159.827 180.651 160.156C178.45 160.484 174.995 159.002 174.403 158.703C173.811 158.404 173.745 157.8 175.909 157.919C178.074 158.039 178.839 158.045 178.839 158.045L178.134 156.173L181.799 155.079Z" fill="#FFD0D0"/>
<path d="M186.331 84.8251L187.856 84.4006C187.856 84.4006 191.043 94.4873 191.395 95.4619C191.748 96.4364 192.149 97.4649 191.461 98.6666C190.642 100.096 186.331 105.842 186.331 105.842L183.593 103.163L186.702 97.4708L183.952 91.9103L186.331 84.8251Z" fill="#FFD0D0"/>
<path d="M170.672 71.725C170.314 71.054 170.133 70.3033 170.145 69.5431C170.156 68.7829 170.36 68.0381 170.738 67.3782C172.256 64.5621 175.641 63.1928 179.67 63.713C181.536 63.9582 183.736 65.5067 184.938 67.8206C186.265 70.3857 186.391 75.5516 186.732 77.5067L170.672 71.725Z" fill="#37474F"/>
<path d="M170.564 72.8312C170.564 72.8312 169.608 74.6548 169.775 74.8222C170.023 74.967 170.294 75.0682 170.576 75.1212L170.564 72.8312Z" fill="#FFD0D0"/>
<path d="M173.47 67.0673C172.43 67.743 170.636 68.9866 170.558 73.0823C170.474 77.2676 171.072 78.6488 171.694 79.1331C172.113 79.462 174.57 79.2945 175.622 79.0494C176.675 78.8043 179.706 77.3035 180.8 75.0255C182.086 72.3469 181.823 68.4485 179.915 67.2527C178.945 66.6786 177.844 66.3605 176.717 66.3281C175.589 66.2957 174.472 66.55 173.47 67.0673Z" fill="#FFD0D0"/>
<path d="M184.513 98.4695C186.354 101.339 188.1 103.851 188.483 107.091C189.272 113.901 186.689 121.686 186.133 126.727C187.179 128.16 187.782 129.869 187.867 131.641C187.867 133.728 184.513 153.369 184.513 153.369C184.513 153.369 182.073 154.111 180.836 153.04L178.534 116.909L179.73 112.508L184.513 98.4695Z" fill="url(#paint14_linear_1392_38402)"/>
<path opacity="0.2" d="M184.513 98.4695C186.354 101.339 188.1 103.851 188.483 107.091C189.272 113.901 186.689 121.686 186.133 126.727C187.179 128.16 187.782 129.869 187.867 131.641C187.867 133.728 184.513 153.369 184.513 153.369C184.513 153.369 182.073 154.111 180.836 153.04L178.534 116.909L179.73 112.508L184.513 98.4695Z" fill="black"/>
<path d="M178.534 116.909L179.73 112.508C182.019 111.906 184.227 111.028 186.306 109.895C186.306 109.895 185.063 112.161 181.487 113.405L179.64 119.055L179.484 132L178.534 116.909Z" fill="url(#paint15_linear_1392_38402)"/>
<path opacity="0.3" d="M178.534 116.909L179.73 112.508C182.019 111.906 184.227 111.028 186.306 109.895C186.306 109.895 185.063 112.161 181.487 113.405L179.64 119.055L179.484 132L178.534 116.909Z" fill="black"/>
<path d="M184.513 98.4695C185.499 100.084 187.855 102.834 187.353 105.483C186.755 108.688 185.021 110.942 179.747 112.508L174.797 130.446C174.797 130.446 177.374 132.837 178.163 135.151C178.952 137.465 181.798 155.091 181.798 155.091C181.798 155.091 180.913 156.532 178.133 156.185C178.133 156.185 168.441 134.063 167.759 132.622C166.932 131.163 166.642 129.46 166.94 127.809C167.245 125.489 170.528 100.096 170.528 100.096L184.513 98.4695Z" fill="url(#paint16_linear_1392_38402)"/>
<path opacity="0.2" d="M184.513 98.4695C185.499 100.084 187.855 102.834 187.353 105.483C186.755 108.688 185.021 110.942 179.747 112.508L174.797 130.446C174.797 130.446 177.374 132.837 178.163 135.151C178.952 137.465 181.798 155.091 181.798 155.091C181.798 155.091 180.913 156.532 178.133 156.185C178.133 156.185 168.441 134.063 167.759 132.622C166.932 131.163 166.642 129.46 166.94 127.809C167.245 125.489 170.528 100.096 170.528 100.096L184.513 98.4695Z" fill="black"/>
<path d="M186.331 84.8251L174.014 82.8341C173.763 82.7803 173.356 82.6787 172.818 82.5411C172.818 82.5411 172.292 90.2661 169.129 92.0359C169.207 92.4066 169.272 92.8192 169.332 93.2915C169.518 94.7743 170.528 100.072 170.528 100.072C170.528 100.072 175.311 102.386 179.24 101.268C183.168 100.15 184.495 98.4813 184.495 98.4813L182.528 95.2766C183.078 93.9432 185.553 88.586 186.331 84.8251Z" fill="url(#paint17_linear_1392_38402)"/>
<path opacity="0.7" d="M186.331 84.8251L174.014 82.8341C173.763 82.7803 173.356 82.6787 172.818 82.5411C172.818 82.5411 172.292 90.2661 169.129 92.0359C169.207 92.4066 169.272 92.8192 169.332 93.2915C169.518 94.7743 170.528 100.072 170.528 100.072C170.528 100.072 175.311 102.386 179.24 101.268C183.168 100.15 184.495 98.4813 184.495 98.4813L182.528 95.2766C183.078 93.9432 185.553 88.586 186.331 84.8251Z" fill="white"/>
<path d="M183.085 94.0031C181.449 94.9853 179.735 95.8312 177.96 96.5322C179.571 96.5001 181.148 96.0642 182.546 95.2646L183.085 94.0031Z" fill="url(#paint18_linear_1392_38402)"/>
<path d="M173.165 67.2705C173.165 67.2705 172.567 71.1569 173.978 73.4409C173.978 73.4409 174.504 71.8923 175.814 72.1853C177.123 72.4783 177.195 74.2062 176.274 75.1748C176.04 75.4465 175.734 75.6467 175.391 75.7525C175.049 75.8582 174.683 75.8653 174.337 75.7727C174.337 75.7727 174.127 78.5829 174.014 80.9387C173.9 83.2944 173.278 88.4304 175.927 90.5052C178.576 92.5799 185.225 93.3094 188.34 88.9566C190.074 86.5351 187.772 82.254 186.701 77.4529C185.715 73.0403 185.159 66.4992 180.477 65.4469C175.796 64.3946 173.165 67.2705 173.165 67.2705Z" fill="#37474F"/>
<path d="M190.343 14.1705L189.356 14.7684C189.439 14.4174 189.485 14.0587 189.494 13.6981C189.494 11.6951 188.089 10.888 186.355 11.9044C185.827 12.2227 185.356 12.6269 184.962 13.1002C184.962 10.4096 183.072 9.31546 180.741 10.6608C179.512 11.4621 178.489 12.5418 177.756 13.8123C177.022 15.0828 176.599 16.5083 176.519 17.9732C176.519 18.1107 176.519 18.2422 176.519 18.3738C175.919 18.2982 175.311 18.438 174.803 18.7684C173.89 19.3637 173.129 20.1662 172.584 21.1105C172.038 22.0548 171.723 23.1144 171.664 24.2034C171.664 24.4565 171.69 24.709 171.742 24.9567L171.216 25.2617C169.787 26.0868 168.627 27.6951 168.627 28.8491C168.627 30.0031 169.787 30.2781 171.216 29.447L190.349 18.4156C191.778 17.5905 192.938 15.9821 192.938 14.8282C192.938 13.6742 191.772 13.3394 190.343 14.1705Z" fill="#EBEBEB"/>
<defs>
<linearGradient id="paint0_linear_1392_38402" x1="27.7725" y1="141.594" x2="40.6064" y2="142.292" gradientUnits="userSpaceOnUse">
<stop stop-color="#44C9E1"/>
<stop offset="1" stop-color="#F59022"/>
</linearGradient>
<linearGradient id="paint1_linear_1392_38402" x1="14.7476" y1="139.111" x2="33.466" y2="140.159" gradientUnits="userSpaceOnUse">
<stop stop-color="#44C9E1"/>
<stop offset="1" stop-color="#F59022"/>
</linearGradient>
<linearGradient id="paint2_linear_1392_38402" x1="142.53" y1="104.626" x2="160.4" y2="105.731" gradientUnits="userSpaceOnUse">
<stop stop-color="#44C9E1"/>
<stop offset="1" stop-color="#F59022"/>
</linearGradient>
<linearGradient id="paint3_linear_1392_38402" x1="58.5029" y1="84.5914" x2="82.0998" y2="85.6476" gradientUnits="userSpaceOnUse">
<stop stop-color="#44C9E1"/>
<stop offset="1" stop-color="#F59022"/>
</linearGradient>
<linearGradient id="paint4_linear_1392_38402" x1="44.9023" y1="105.32" x2="83.0863" y2="107.749" gradientUnits="userSpaceOnUse">
<stop stop-color="#44C9E1"/>
<stop offset="1" stop-color="#F59022"/>
</linearGradient>
<linearGradient id="paint5_linear_1392_38402" x1="99.228" y1="34.2273" x2="155.55" y2="36.5644" gradientUnits="userSpaceOnUse">
<stop stop-color="#44C9E1"/>
<stop offset="1" stop-color="#F59022"/>
</linearGradient>
<linearGradient id="paint6_linear_1392_38402" x1="115.616" y1="47.5213" x2="136.493" y2="49.087" gradientUnits="userSpaceOnUse">
<stop stop-color="#44C9E1"/>
<stop offset="1" stop-color="#F59022"/>
</linearGradient>
<linearGradient id="paint7_linear_1392_38402" x1="122.181" y1="51.9339" x2="128.951" y2="52.4429" gradientUnits="userSpaceOnUse">
<stop stop-color="#44C9E1"/>
<stop offset="1" stop-color="#F59022"/>
</linearGradient>
<linearGradient id="paint8_linear_1392_38402" x1="119.323" y1="59.6843" x2="132.321" y2="60.9735" gradientUnits="userSpaceOnUse">
<stop stop-color="#44C9E1"/>
<stop offset="1" stop-color="#F59022"/>
</linearGradient>
<linearGradient id="paint9_linear_1392_38402" x1="105.5" y1="76.4053" x2="120.952" y2="78.5213" gradientUnits="userSpaceOnUse">
<stop stop-color="#44C9E1"/>
<stop offset="1" stop-color="#F59022"/>
</linearGradient>
<linearGradient id="paint10_linear_1392_38402" x1="105.5" y1="71.9559" x2="146.715" y2="77.5764" gradientUnits="userSpaceOnUse">
<stop stop-color="#44C9E1"/>
<stop offset="1" stop-color="#F59022"/>
</linearGradient>
<linearGradient id="paint11_linear_1392_38402" x1="105.5" y1="96.036" x2="120.952" y2="98.1514" gradientUnits="userSpaceOnUse">
<stop stop-color="#44C9E1"/>
<stop offset="1" stop-color="#F59022"/>
</linearGradient>
<linearGradient id="paint12_linear_1392_38402" x1="105.5" y1="91.5863" x2="146.715" y2="97.2068" gradientUnits="userSpaceOnUse">
<stop stop-color="#44C9E1"/>
<stop offset="1" stop-color="#F59022"/>
</linearGradient>
<linearGradient id="paint13_linear_1392_38402" x1="120.07" y1="106.301" x2="138.266" y2="108.185" gradientUnits="userSpaceOnUse">
<stop stop-color="#44C9E1"/>
<stop offset="1" stop-color="#F59022"/>
</linearGradient>
<linearGradient id="paint14_linear_1392_38402" x1="178.534" y1="102.901" x2="189.44" y2="103.095" gradientUnits="userSpaceOnUse">
<stop stop-color="#44C9E1"/>
<stop offset="1" stop-color="#F59022"/>
</linearGradient>
<linearGradient id="paint15_linear_1392_38402" x1="178.534" y1="111.672" x2="186.922" y2="111.957" gradientUnits="userSpaceOnUse">
<stop stop-color="#44C9E1"/>
<stop offset="1" stop-color="#F59022"/>
</linearGradient>
<linearGradient id="paint16_linear_1392_38402" x1="166.826" y1="103.112" x2="189.052" y2="103.879" gradientUnits="userSpaceOnUse">
<stop stop-color="#44C9E1"/>
<stop offset="1" stop-color="#F59022"/>
</linearGradient>
<linearGradient id="paint17_linear_1392_38402" x1="169.129" y1="84.0705" x2="187.572" y2="85.6844" gradientUnits="userSpaceOnUse">
<stop stop-color="#44C9E1"/>
<stop offset="1" stop-color="#F59022"/>
</linearGradient>
<linearGradient id="paint18_linear_1392_38402" x1="177.96" y1="94.2063" x2="183.291" y2="95.252" gradientUnits="userSpaceOnUse">
<stop stop-color="#44C9E1"/>
<stop offset="1" stop-color="#F59022"/>
</linearGradient>
</defs>
</svg>
