<svg width="24" height="24" viewBox="0 0 24 24" fill="none" xmlns="http://www.w3.org/2000/svg">
<g id="bag">
<path id="Vector" d="M7.94839 11.152C7.73143 10.9493 7.37968 10.9493 7.16272 11.152C6.94576 11.3546 6.94576 11.683 7.16272 11.8857L7.60716 12.3007C10.0333 14.5664 13.9668 14.5664 16.3928 12.3007L16.8373 11.8857C17.0542 11.683 17.0542 11.3546 16.8373 11.152C16.6203 10.9493 16.2685 10.9493 16.0516 11.152L15.6071 11.567C13.615 13.4274 10.385 13.4274 8.39284 11.567L7.94839 11.152Z" fill="#0A1214"/>
<path id="Vector_2" fill-rule="evenodd" clip-rule="evenodd" d="M12.0001 2C9.39642 2 7.24655 3.93646 6.91888 6.44444H6.3284C5.44105 6.44442 4.7052 6.44439 4.1277 6.52488C3.52059 6.60948 2.97506 6.79631 2.56019 7.25864C2.1453 7.72097 2.01939 8.28239 2.00212 8.89357C1.9857 9.47495 2.06698 10.2044 2.165 11.084L2.43939 13.5471C2.64439 15.3875 2.8054 16.8329 3.07886 17.9563C3.35916 19.1077 3.77605 20.0064 4.55 20.6973C5.3247 21.3889 6.27068 21.7026 7.45542 21.8531C8.61213 22 10.0809 22 11.9524 22H12.0477C13.9191 22 15.3879 22 16.5446 21.8531C17.7293 21.7026 18.6753 21.3889 19.4501 20.6973C20.224 20.0064 20.6409 19.1077 20.9211 17.9563C21.1947 16.8329 21.3556 15.3876 21.5607 13.5472L21.8351 11.084C21.933 10.2044 22.0143 9.47494 21.9979 8.89357C21.9806 8.28239 21.8548 7.72097 21.4398 7.25864C21.025 6.79631 20.4795 6.60948 19.8723 6.52488C19.2948 6.44439 18.559 6.44442 17.6716 6.44444H17.0812C16.7536 3.93652 14.6036 2 12.0001 2ZM12.0001 3.33333C13.8638 3.33333 15.4132 4.67612 15.7288 6.44444H8.27117C8.58674 4.67616 10.1363 3.33333 12.0001 3.33333ZM3.55626 8.14787C3.67275 8.01805 3.85759 7.90881 4.31269 7.84538C4.78675 7.77932 5.4284 7.77778 6.37772 7.77778H17.6223C18.5716 7.77778 19.2133 7.77932 19.6873 7.84538C20.1424 7.90881 20.3273 8.01805 20.4437 8.14787C20.5602 8.27768 20.6487 8.47298 20.6616 8.93113C20.6751 9.40836 20.6058 10.0446 20.501 10.9857L20.2373 13.3524C20.0259 15.2506 19.873 16.6109 19.6221 17.6417C19.3757 18.654 19.0534 19.262 18.5585 19.7038C18.0643 20.145 17.4199 20.3978 16.3757 20.5304C15.3132 20.6654 13.9295 20.6667 12.0001 20.6667C10.0705 20.6667 8.68682 20.6654 7.62433 20.5304C6.58007 20.3978 5.93572 20.145 5.44153 19.7038C4.94662 19.262 4.62432 18.654 4.37791 17.6417C4.127 16.6109 3.97417 15.2506 3.76272 13.3524L3.49907 10.9857C3.39423 10.0446 3.3249 9.40836 3.33838 8.93113C3.35132 8.47298 3.43977 8.27768 3.55626 8.14787Z" fill="#0A1214"/>
</g>
</svg>
