<svg width="16" height="16" viewBox="0 0 16 16" fill="none" xmlns="http://www.w3.org/2000/svg">
<g id="vuesax/linear/bag-timer">
<g id="bag-timer">
<path id="Vector" d="M8.00016 12.6667C9.47292 12.6667 10.6668 11.4728 10.6668 10C10.6668 8.52728 9.47292 7.33337 8.00016 7.33337C6.5274 7.33337 5.3335 8.52728 5.3335 10C5.3335 11.4728 6.5274 12.6667 8.00016 12.6667Z" stroke="white" stroke-width="0.75" stroke-miterlimit="10" stroke-linecap="round" stroke-linejoin="round"/>
<path id="Vector_2" d="M8.16683 9.16663V9.78663C8.16683 10.02 8.04683 10.24 7.84016 10.36L7.3335 10.6666" stroke="white" stroke-width="0.75" stroke-miterlimit="10" stroke-linecap="round" stroke-linejoin="round"/>
<path id="Vector_3" d="M5.99988 14.6667H9.99988C12.6799 14.6667 13.1599 13.5934 13.2999 12.2867L13.7999 8.28671C13.9799 6.66004 13.5132 5.33337 10.6666 5.33337H5.33322C2.48655 5.33337 2.01988 6.66004 2.19988 8.28671L2.69988 12.2867C2.83988 13.5934 3.31988 14.6667 5.99988 14.6667Z" stroke="white" stroke-width="0.75" stroke-miterlimit="10" stroke-linecap="round" stroke-linejoin="round"/>
<path id="Vector_4" d="M5 5.11334V4.46667C5 2.96667 6.20667 1.49334 7.70667 1.35334C9.49333 1.18001 11 2.58667 11 4.34001V5.26001" stroke="white" stroke-width="0.75" stroke-miterlimit="10" stroke-linecap="round" stroke-linejoin="round"/>
</g>
</g>
</svg>
