<svg width="24" height="24" viewBox="0 0 24 24" fill="none" xmlns="http://www.w3.org/2000/svg">
<g id="vuesax/linear/call">
<g id="call">
<g id="call_2">
<path id="Vector" d="M20.9715 17.697C20.9715 18.021 20.8995 18.354 20.7465 18.678C20.5935 19.002 20.3955 19.308 20.1345 19.596C19.6935 20.082 19.2075 20.433 18.6585 20.658C18.1185 20.883 17.5335 21 16.9035 21C15.9855 21 15.0045 20.784 13.9695 20.343C12.9345 19.902 11.8995 19.308 10.8735 18.561C9.83854 17.805 8.85754 16.968 7.92154 16.041C6.99454 15.105 6.15754 14.124 5.41054 13.098C4.67254 12.072 4.07854 11.046 3.64654 10.029C3.21454 9.003 2.99854 8.022 2.99854 7.086C2.99854 6.474 3.10654 5.889 3.32254 5.349C3.53854 4.8 3.88054 4.296 4.35754 3.846C4.93354 3.279 5.56354 3 6.22954 3C6.48154 3 6.73354 3.054 6.95854 3.162C7.19254 3.27 7.39954 3.432 7.56154 3.666L9.64954 6.609C9.81154 6.834 9.92854 7.041 10.0095 7.239C10.0905 7.428 10.1355 7.617 10.1355 7.788C10.1355 8.004 10.0725 8.22 9.94654 8.427C9.82954 8.634 9.65854 8.85 9.44254 9.066L8.75854 9.777C8.65954 9.876 8.61454 9.993 8.61454 10.137C8.61454 10.209 8.62354 10.272 8.64154 10.344C8.66854 10.416 8.69554 10.47 8.71354 10.524C8.87554 10.821 9.15454 11.208 9.55054 11.676C9.95554 12.144 10.3875 12.621 10.8555 13.098C11.3415 13.575 11.8095 14.016 12.2865 14.421C12.7545 14.817 13.1415 15.087 13.4475 15.249C13.4925 15.267 13.5465 15.294 13.6095 15.321C13.6815 15.348 13.7535 15.357 13.8345 15.357C13.9875 15.357 14.1045 15.303 14.2035 15.204L14.8875 14.529C15.1125 14.304 15.3285 14.133 15.5355 14.025C15.7425 13.899 15.9495 13.836 16.1745 13.836C16.3455 13.836 16.5255 13.872 16.7235 13.953C16.9215 14.034 17.1285 14.151 17.3535 14.304L20.3325 16.419C20.5665 16.581 20.7285 16.77 20.8275 16.995C20.9175 17.22 20.9715 17.445 20.9715 17.697Z" stroke="#292D32" stroke-miterlimit="10"/>
</g>
</g>
</g>
</svg>
