<svg width="20" height="20" viewBox="0 0 20 20" fill="none" xmlns="http://www.w3.org/2000/svg">
<g id="Card">
<path id="Vector" d="M14.9683 4.24609H5.03168C4.36888 4.24689 3.73346 4.51053 3.26479 4.9792C2.79612 5.44787 2.53247 6.0833 2.53168 6.74609V13.2539C2.53247 13.9167 2.79612 14.5521 3.26479 15.0208C3.73346 15.4895 4.36888 15.7531 5.03168 15.7539H14.9683C15.6311 15.7531 16.2665 15.4895 16.7352 15.0208C17.2038 14.5521 17.4675 13.9167 17.4683 13.2539V6.74609C17.4675 6.0833 17.2038 5.44787 16.7352 4.9792C16.2665 4.51053 15.6311 4.24689 14.9683 4.24609ZM5.03168 5.24609H14.9683C15.366 5.24652 15.7473 5.40469 16.0285 5.6859C16.3097 5.96711 16.4679 6.3484 16.4683 6.74609V7.40189H3.53168V6.74609C3.5321 6.3484 3.69027 5.96711 3.97148 5.6859C4.2527 5.40469 4.63398 5.24652 5.03168 5.24609ZM14.9683 14.7539H5.03168C4.63398 14.7535 4.2527 14.5953 3.97148 14.3141C3.69027 14.0329 3.5321 13.6516 3.53168 13.2539V8.40189H16.4683V13.2539C16.4679 13.6516 16.3097 14.0329 16.0285 14.3141C15.7473 14.5953 15.366 14.7535 14.9683 14.7539ZM15.1016 12.4155C15.1016 12.5481 15.0489 12.6753 14.9551 12.769C14.8614 12.8628 14.7342 12.9155 14.6016 12.9155H13.4028C13.2702 12.9155 13.143 12.8628 13.0492 12.769C12.9555 12.6753 12.9028 12.5481 12.9028 12.4155C12.9028 12.2829 12.9555 12.1557 13.0492 12.0619C13.143 11.9682 13.2702 11.9155 13.4028 11.9155H14.6016C14.7342 11.9155 14.8614 11.9682 14.9551 12.0619C15.0489 12.1557 15.1016 12.2829 15.1016 12.4155Z" fill="url(#paint0_linear_73_3558)"/>
</g>
<defs>
<linearGradient id="paint0_linear_73_3558" x1="2.53168" y1="5.17083" x2="18.4182" y2="7.1672" gradientUnits="userSpaceOnUse">
<stop stop-color="#44C9E1"/>
<stop offset="1" stop-color="#F59022"/>
</linearGradient>
</defs>
</svg>
