<svg width="24" height="24" viewBox="0 0 24 24" fill="none" xmlns="http://www.w3.org/2000/svg">
<g id="Security">
<path id="Vector" d="M3 8.50488H21" stroke="#292D32" stroke-width="1.25" stroke-miterlimit="10" stroke-linecap="round" stroke-linejoin="round"/>
<path id="Vector_2" d="M7 16.5049H8" stroke="#292D32" stroke-width="1.25" stroke-miterlimit="10" stroke-linecap="round" stroke-linejoin="round"/>
<path id="Vector_3" d="M11.5 16.5049H13.5" stroke="#292D32" stroke-width="1.25" stroke-miterlimit="10" stroke-linecap="round" stroke-linejoin="round"/>
<path id="Vector_4" d="M6.996 3.50488H16.995C20.199 3.50488 21 4.38488 21 7.89488V16.1049C21 19.6149 20.199 20.4949 17.004 20.4949H6.996C3.801 20.5049 3 19.6249 3 16.1149V7.89488C3 4.38488 3.801 3.50488 6.996 3.50488Z" stroke="#292D32" stroke-width="1.25" stroke-linecap="round" stroke-linejoin="round"/>
<path id="Vector_5" d="M3 8.50488H21" stroke="#292D32" stroke-width="1.25" stroke-miterlimit="10" stroke-linecap="round" stroke-linejoin="round"/>
<path id="Vector_6" d="M7 16.5049H9" stroke="#292D32" stroke-width="1.25" stroke-miterlimit="10" stroke-linecap="round" stroke-linejoin="round"/>
<path id="Vector_7" d="M11.5 16.5049H15.5" stroke="#292D32" stroke-width="1.25" stroke-miterlimit="10" stroke-linecap="round" stroke-linejoin="round"/>
<path id="Vector_8" d="M6.996 3.50488H16.995C20.199 3.50488 21 4.38488 21 7.89488V16.1049C21 19.6149 20.199 20.4949 17.004 20.4949H6.996C3.801 20.5049 3 19.6249 3 16.1149V7.89488C3 4.38488 3.801 3.50488 6.996 3.50488Z" stroke="#292D32" stroke-width="1.25" stroke-linecap="round" stroke-linejoin="round"/>
</g>
</svg>
