<svg width="24" height="24" viewBox="0 0 24 24" fill="none" xmlns="http://www.w3.org/2000/svg">
<g id="edit">
<g id="Group 162354">
<path id="Vector" d="M21.1167 11.8667C20.9487 11.8667 20.7876 11.9334 20.6688 12.0522C20.5501 12.1709 20.4833 12.332 20.4833 12.5V18.8333C20.4833 19.3372 20.2832 19.8205 19.9268 20.1768C19.5705 20.5332 19.0872 20.7333 18.5833 20.7333H5.91667C5.41276 20.7333 4.92948 20.5332 4.57316 20.1768C4.21684 19.8205 4.01667 19.3372 4.01667 18.8333V6.16667C4.01667 5.66276 4.21684 5.17948 4.57316 4.82316C4.92948 4.46684 5.41276 4.26667 5.91667 4.26667H12.25C12.418 4.26667 12.5791 4.19994 12.6978 4.08117C12.8166 3.96239 12.8833 3.8013 12.8833 3.63333C12.8833 3.46536 12.8166 3.30427 12.6978 3.1855C12.5791 3.06673 12.418 3 12.25 3H5.91667C5.50081 3 5.08903 3.08191 4.70484 3.24105C4.32064 3.40019 3.97155 3.63344 3.6775 3.9275C3.08363 4.52136 2.75 5.32681 2.75 6.16667V18.8333C2.75 19.6732 3.08363 20.4786 3.6775 21.0725C3.97155 21.3666 4.32064 21.5998 4.70484 21.759C5.08903 21.9181 5.50081 22 5.91667 22H18.5833C19.4232 22 20.2286 21.6664 20.8225 21.0725C21.4164 20.4786 21.75 19.6732 21.75 18.8333V12.5C21.75 12.332 21.6833 12.1709 21.5645 12.0522C21.4457 11.9334 21.2846 11.8667 21.1167 11.8667Z" fill="black"/>
<path id="Vector_2" d="M7.25 13.5903V16.4339C7.25 16.5888 7.31152 16.7373 7.42102 16.8468C7.53053 16.9563 7.67905 17.0178 7.83391 17.0178H10.6776C10.9085 17.0184 11.1373 16.9733 11.3507 16.8851C11.5642 16.7969 11.7581 16.6674 11.9213 16.504L20.7501 7.67522C20.9151 7.51227 21.0462 7.31817 21.1356 7.10416C21.2251 6.89016 21.2712 6.66052 21.2712 6.42857C21.2712 6.19662 21.2251 5.96698 21.1356 5.75298C21.0462 5.53897 20.9151 5.34486 20.7501 5.18192L19.0801 3.51777C18.7443 3.19689 18.2978 3.01782 17.8334 3.01782C17.369 3.01782 16.9225 3.19689 16.5868 3.51777L7.76384 12.3465C7.43702 12.6783 7.25265 13.1246 7.25 13.5903ZM17.4159 4.34692C17.4704 4.29041 17.5357 4.24546 17.6079 4.21476C17.6802 4.18405 17.7578 4.16823 17.8363 4.16823C17.9148 4.16823 17.9925 4.18405 18.0647 4.21476C18.137 4.24546 18.2023 4.29041 18.2567 4.34692L19.9209 6.01107C19.9774 6.06554 20.0224 6.13085 20.0531 6.20308C20.0838 6.27532 20.0996 6.353 20.0996 6.43149C20.0996 6.50998 20.0838 6.58766 20.0531 6.6599C20.0224 6.73213 19.9774 6.79744 19.9209 6.85191L18.6655 8.10732L16.1605 5.60233L17.4159 4.34692ZM8.41782 13.5903C8.41737 13.512 8.43264 13.4345 8.46273 13.3623C8.49282 13.29 8.53712 13.2246 8.593 13.1698L15.3372 6.42565L17.8422 8.93063L11.098 15.6748C11.0432 15.7307 10.9778 15.775 10.9056 15.8051C10.8333 15.8352 10.7558 15.8504 10.6776 15.85H8.41782V13.5903Z" fill="black"/>
</g>
</g>
</svg>
