<svg width="24" height="24" viewBox="0 0 24 24" fill="none" xmlns="http://www.w3.org/2000/svg">
<g id="Google">
<g id="Group 162337">
<path id="Vector" d="M11.9998 5.35371C13.568 5.32945 15.0837 5.91955 16.2194 7.00274L19.3598 3.8623C17.3713 1.99501 14.732 0.968407 11.9998 1.00074C7.84086 1.00074 4.03758 3.34496 2.17029 7.06337L5.82403 9.89663C6.69301 7.2897 9.13018 5.35371 11.9998 5.35371Z" fill="#EA4335"/>
<path id="Vector_2" d="M5.82383 14.1081C5.36307 12.742 5.36307 11.2627 5.82383 9.89662V7.06335H2.17009C0.609971 10.1715 0.609971 13.8333 2.17009 16.9414L5.82383 14.1081Z" fill="#FBBC04"/>
<path id="Vector_3" d="M11.9998 23C14.9665 23 17.4683 22.0259 19.2911 20.3446L15.7465 17.5962C14.7603 18.2671 13.4872 18.647 12.0039 18.647C9.13422 18.647 6.70109 16.711 5.82807 14.1082H2.17029V16.9414C4.03758 20.6558 7.84086 23 11.9998 23Z" fill="#34A853"/>
<path id="Vector_4" d="M22.5648 12.253C22.5648 11.5053 22.5042 10.7535 22.3749 10.0179H11.9997V14.2537H17.9411C17.6945 15.6198 16.9023 16.8283 15.7424 17.5962V20.3446H19.287C21.3685 18.4288 22.5648 15.5996 22.5648 12.253Z" fill="#4285F4"/>
</g>
</g>
</svg>
