<svg width="14" height="14" viewBox="0 0 14 14" fill="none" xmlns="http://www.w3.org/2000/svg">
<g id="hanger" clip-path="url(#clip0_2796_5750)">
<path id="Vector" d="M13.2449 9.3625L7.44761 5.88393C7.46726 5.69008 7.5294 5.50294 7.62959 5.33583C7.72978 5.16871 7.86557 5.02573 8.0273 4.91706C8.29484 4.72445 8.50218 4.45981 8.62517 4.15395C8.74817 3.84809 8.78176 3.51358 8.72205 3.18937C8.6442 2.75943 8.40833 2.37416 8.06082 2.10931C7.71331 1.84446 7.2793 1.71919 6.8441 1.75813C6.40891 1.79706 6.00402 1.99738 5.70904 2.31972C5.41407 2.64205 5.25034 3.06306 5.25004 3.5C5.25004 3.61603 5.29614 3.72731 5.37819 3.80935C5.46023 3.8914 5.57151 3.9375 5.68754 3.9375C5.80358 3.9375 5.91486 3.8914 5.9969 3.80935C6.07895 3.72731 6.12504 3.61603 6.12504 3.5C6.12508 3.37164 6.15336 3.24486 6.20787 3.12865C6.26239 3.01244 6.3418 2.90964 6.44048 2.82756C6.53909 2.74455 6.65501 2.68465 6.77977 2.65225C6.90452 2.61985 7.03495 2.61577 7.16148 2.64031C7.33473 2.67373 7.494 2.75827 7.61876 2.88303C7.74352 3.00779 7.82806 3.16706 7.86148 3.34031C7.89146 3.50286 7.87478 3.67057 7.81338 3.82403C7.75198 3.97749 7.64837 4.11042 7.51455 4.20743C7.24083 4.39494 7.01343 4.64234 6.84961 4.93086C6.6858 5.21938 6.58987 5.54143 6.56911 5.87256L0.756045 9.3625C0.525787 9.50109 0.335211 9.69678 0.202766 9.93063C0.0703216 10.1645 0.000494448 10.4286 4.50596e-05 10.6973C-0.00152185 10.9007 0.0377922 11.1023 0.115653 11.2902C0.193514 11.4781 0.308333 11.6484 0.453295 11.7911C0.596432 11.9375 0.767584 12.0536 0.956549 12.1324C1.14551 12.2113 1.34842 12.2512 1.55317 12.25H12.4469C12.7869 12.25 13.1176 12.1385 13.3881 11.9326C13.6587 11.7267 13.8543 11.4377 13.9448 11.1099C14.0354 10.7822 14.016 10.4338 13.8896 10.1182C13.7631 9.80255 13.5367 9.53708 13.2449 9.3625ZM12.4469 11.375H1.55317C1.4633 11.3758 1.37421 11.3582 1.29143 11.3232C1.20864 11.2882 1.13393 11.2366 1.07192 11.1716C1.00854 11.1101 0.958387 11.0363 0.924533 10.9548C0.890679 10.8732 0.873839 10.7856 0.875045 10.6973C0.874384 10.5797 0.90453 10.464 0.962481 10.3617C1.02043 10.2594 1.10417 10.174 1.20536 10.1141L7.00004 6.63556L12.7947 10.1141C12.9218 10.1905 13.0203 10.3064 13.0753 10.4441C13.1303 10.5818 13.1388 10.7336 13.0993 10.8766C13.0599 11.0195 12.9748 11.1456 12.857 11.2356C12.7392 11.3256 12.5952 11.3745 12.4469 11.375Z" fill="#A4ADAF"/>
</g>
<defs>
<clipPath id="clip0_2796_5750">
<rect width="14" height="14" fill="white"/>
</clipPath>
</defs>
</svg>
