<svg width="14" height="14" viewBox="0 0 14 14" fill="none" xmlns="http://www.w3.org/2000/svg">
<g id="hanger" clip-path="url(#clip0_91_2857)">
<path id="Vector" d="M13.2449 9.36256L7.44758 5.88399C7.46723 5.69014 7.52937 5.503 7.62956 5.33589C7.72975 5.16878 7.86554 5.02579 8.02726 4.91712C8.29481 4.72451 8.50215 4.45987 8.62514 4.15401C8.74814 3.84815 8.78173 3.51364 8.72202 3.18943C8.64417 2.75949 8.4083 2.37422 8.06079 2.10937C7.71328 1.84452 7.27927 1.71925 6.84407 1.75819C6.40888 1.79712 6.00399 1.99745 5.70901 2.31978C5.41404 2.64211 5.25031 3.06313 5.25001 3.50006C5.25001 3.61609 5.29611 3.72737 5.37816 3.80942C5.4602 3.89146 5.57148 3.93756 5.68751 3.93756C5.80355 3.93756 5.91483 3.89146 5.99687 3.80942C6.07892 3.72737 6.12501 3.61609 6.12501 3.50006C6.12505 3.3717 6.15333 3.24492 6.20784 3.12871C6.26236 3.0125 6.34177 2.90971 6.44045 2.82762C6.53906 2.74461 6.65498 2.68471 6.77974 2.65231C6.90449 2.61991 7.03492 2.61583 7.16145 2.64037C7.3347 2.67379 7.49397 2.75833 7.61873 2.88309C7.74349 3.00786 7.82803 3.16712 7.86145 3.34037C7.89143 3.50292 7.87475 3.67063 7.81335 3.82409C7.75195 3.97755 7.64834 4.11048 7.51451 4.20749C7.2408 4.395 7.0134 4.6424 6.84958 4.93092C6.68577 5.21944 6.58984 5.54149 6.56908 5.87262L0.756015 9.36256C0.525757 9.50115 0.335181 9.69684 0.202736 9.93069C0.070291 10.1645 0.00046393 10.4286 1.4542e-05 10.6974C-0.00155237 10.9007 0.0377616 11.1024 0.115622 11.2902C0.193483 11.4781 0.308303 11.6485 0.453265 11.7911C0.596401 11.9375 0.767554 12.0536 0.956518 12.1325C1.14548 12.2113 1.34839 12.2513 1.55314 12.2501H12.4469C12.7869 12.2501 13.1175 12.1386 13.3881 11.9326C13.6587 11.7267 13.8542 11.4377 13.9448 11.11C14.0354 10.7823 14.016 10.4339 13.8895 10.1182C13.7631 9.80261 13.5367 9.53714 13.2449 9.36256ZM12.4469 11.3751H1.55314C1.46327 11.3759 1.37418 11.3583 1.2914 11.3233C1.20861 11.2883 1.1339 11.2367 1.07189 11.1716C1.00851 11.1101 0.958357 11.0364 0.924503 10.9548C0.890649 10.8733 0.873809 10.7857 0.875015 10.6974C0.874354 10.5798 0.904499 10.4641 0.962451 10.3618C1.0204 10.2594 1.10414 10.1741 1.20533 10.1142L7.00001 6.63562L12.7947 10.1142C12.9217 10.1906 13.0203 10.3065 13.0753 10.4441C13.1303 10.5818 13.1387 10.7337 13.0993 10.8766C13.0599 11.0195 12.9748 11.1456 12.857 11.2356C12.7392 11.3256 12.5951 11.3746 12.4469 11.3751Z" fill="#A4ADAF"/>
</g>
<defs>
<clipPath id="clip0_91_2857">
<rect width="14" height="14" fill="white"/>
</clipPath>
</defs>
</svg>
