<svg width="24" height="24" viewBox="0 0 24 24" fill="none" xmlns="http://www.w3.org/2000/svg">
<g id="instagram" clip-path="url(#clip0_5_12247)">
<path id="Path 16" d="M6.08588 23.9151C5.15758 23.9047 4.23801 23.7344 3.36753 23.4118C2.73187 23.1768 2.15676 22.8027 1.68424 22.3169C1.19712 21.8454 0.822514 21.2701 0.588235 20.6339C0.265824 19.7634 0.0958076 18.8439 0.0856471 17.9158C0.0143529 16.3727 0 15.9099 0 12C0 8.09012 0.0157647 7.62894 0.0849412 6.08471C0.0963347 5.15689 0.26656 4.23788 0.588235 3.36753C0.823654 2.73176 1.19773 2.15642 1.68329 1.68329C2.15523 1.19662 2.73061 0.822358 3.36682 0.588235C4.2373 0.265557 5.15687 0.0953008 6.08518 0.0849412C7.62871 0.0143529 8.09224 0 12 0C15.9078 0 16.3711 0.0157647 17.9153 0.0849412C18.8433 0.0962542 19.7626 0.266481 20.6332 0.588235C21.2691 0.822667 21.8443 1.1968 22.3165 1.68306C22.8029 2.15535 23.1772 2.73073 23.4118 3.36682C23.7345 4.23729 23.9049 5.15686 23.9153 6.08518C23.9859 7.62941 24.0002 8.09176 24.0002 12.0005C24.0002 15.9092 23.9859 16.3715 23.9153 17.9158C23.9041 18.8439 23.7338 19.7633 23.4118 20.6339C23.1682 21.2652 22.7951 21.8386 22.3166 22.317C21.838 22.7954 21.2646 23.1683 20.6332 23.4118C19.7627 23.7345 18.8431 23.9049 17.9148 23.9153C16.372 23.9859 15.9082 24.0002 11.9995 24.0002C8.09082 24.0002 7.62847 23.9866 6.08565 23.9153" fill="url(#paint0_radial_5_12247)"/>
<path id="Path 17" d="M6.08588 23.9151C5.15758 23.9047 4.23801 23.7344 3.36753 23.4118C2.73187 23.1768 2.15676 22.8027 1.68424 22.3169C1.19712 21.8454 0.822514 21.2701 0.588235 20.6339C0.265824 19.7634 0.0958076 18.8439 0.0856471 17.9158C0.0143529 16.3727 0 15.9099 0 12C0 8.09012 0.0157647 7.62894 0.0849412 6.08471C0.0963347 5.15689 0.26656 4.23788 0.588235 3.36753C0.823654 2.73176 1.19773 2.15642 1.68329 1.68329C2.15523 1.19662 2.73061 0.822358 3.36682 0.588235C4.2373 0.265557 5.15687 0.0953008 6.08518 0.0849412C7.62871 0.0143529 8.09224 0 12 0C15.9078 0 16.3711 0.0157647 17.9153 0.0849412C18.8433 0.0962542 19.7626 0.266481 20.6332 0.588235C21.2691 0.822667 21.8443 1.1968 22.3165 1.68306C22.8029 2.15535 23.1772 2.73073 23.4118 3.36682C23.7345 4.23729 23.9049 5.15686 23.9153 6.08518C23.9859 7.62941 24.0002 8.09176 24.0002 12.0005C24.0002 15.9092 23.9859 16.3715 23.9153 17.9158C23.9041 18.8439 23.7338 19.7633 23.4118 20.6339C23.1682 21.2652 22.7951 21.8386 22.3166 22.317C21.838 22.7954 21.2646 23.1683 20.6332 23.4118C19.7627 23.7345 18.8431 23.9049 17.9148 23.9153C16.372 23.9859 15.9082 24.0002 11.9995 24.0002C8.09082 24.0002 7.62847 23.9866 6.08565 23.9153" fill="url(#paint1_radial_5_12247)"/>
<path id="Path 18" d="M9.05342 12.051C9.05347 11.4632 9.22782 10.8886 9.55444 10.3999C9.88106 9.91117 10.3453 9.53027 10.8884 9.30538C11.4314 9.08048 12.029 9.02169 12.6055 9.13643C13.1821 9.25117 13.7116 9.53429 14.1272 9.94999C14.5428 10.3657 14.8258 10.8953 14.9404 11.4718C15.055 12.0484 14.9961 12.6459 14.771 13.189C14.546 13.732 14.165 14.1961 13.6762 14.5226C13.1874 14.8491 12.6128 15.0234 12.0249 15.0233C11.2368 15.0231 10.4809 14.7099 9.92364 14.1525C9.36638 13.5951 9.05336 12.8392 9.05342 12.051ZM7.44659 12.051C7.44659 12.9565 7.71511 13.8417 8.21819 14.5946C8.72126 15.3475 9.4363 15.9344 10.2729 16.2809C11.1095 16.6274 12.03 16.7181 12.9181 16.5414C13.8063 16.3648 14.622 15.9287 15.2623 15.2884C15.9026 14.6481 16.3387 13.8323 16.5153 12.9442C16.692 12.0561 16.6013 11.1355 16.2548 10.299C15.9083 9.46238 15.3214 8.74734 14.5685 8.24426C13.8156 7.74119 12.9305 7.47267 12.0249 7.47267C11.4237 7.47264 10.8283 7.59104 10.2729 7.82112C9.71737 8.05119 9.21264 8.38842 8.78749 8.81357C8.36235 9.23872 8.02511 9.74344 7.79504 10.2989C7.56497 10.8544 7.44656 11.4498 7.44659 12.051ZM15.7146 7.29126C15.7145 7.50286 15.7772 7.70974 15.8946 7.88574C16.0121 8.06173 16.1792 8.19893 16.3746 8.27999C16.5701 8.36106 16.7852 8.38234 16.9927 8.34115C17.2003 8.29996 17.391 8.19814 17.5407 8.04858C17.6904 7.89902 17.7923 7.70844 17.8337 7.50092C17.8751 7.2934 17.854 7.07827 17.7731 6.88274C17.6922 6.68721 17.5552 6.52006 17.3793 6.40242C17.2034 6.28479 16.9965 6.22195 16.7849 6.22185C16.5013 6.22198 16.2293 6.33467 16.0287 6.53519C15.8281 6.7357 15.7153 7.00763 15.7151 7.29126M8.4233 19.3087C7.85792 19.3025 7.29782 19.199 6.76753 19.0028C6.38296 18.8546 6.03369 18.6275 5.7422 18.3361C5.45071 18.0447 5.22345 17.6955 5.07506 17.311C4.87877 16.7808 4.7753 16.2207 4.76918 15.6553C4.72589 14.7155 4.71742 14.4331 4.71742 12.0522C4.71742 9.67126 4.72683 9.38962 4.76918 8.44891C4.77604 7.88359 4.87949 7.3236 5.07506 6.79314C5.22328 6.40845 5.45047 6.05909 5.74198 5.76759C6.03348 5.47608 6.38284 5.24889 6.76753 5.10067C7.29779 4.90439 7.85791 4.80092 8.4233 4.79479C9.36306 4.7515 9.64542 4.74303 12.0254 4.74303C14.4054 4.74303 14.688 4.75221 15.6287 4.79503C16.194 4.80189 16.754 4.90534 17.2845 5.10091C17.6692 5.24914 18.0185 5.47633 18.31 5.76784C18.6015 6.05934 18.8287 6.4087 18.9769 6.79338C19.1732 7.32364 19.2767 7.88376 19.2828 8.44915C19.3261 9.39032 19.3346 9.67126 19.3346 12.0524C19.3346 14.4336 19.3259 14.715 19.2828 15.6557C19.2762 16.2211 19.1728 16.7811 18.9769 17.3115C18.8286 17.696 18.6013 18.0452 18.3098 18.3366C18.0183 18.6279 17.669 18.855 17.2845 19.0033C16.7542 19.1995 16.1941 19.303 15.6287 19.3091C14.6889 19.3524 14.4066 19.3609 12.0254 19.3609C9.64424 19.3609 9.36283 19.3522 8.4233 19.3091M8.34942 3.18938C7.60961 3.20393 6.87765 3.34395 6.18471 3.60349C5.59236 3.83252 5.0544 4.18281 4.60533 4.63188C4.15625 5.08095 3.80597 5.61891 3.57694 6.21126C3.31744 6.90421 3.17741 7.63617 3.16283 8.37597C3.11883 9.32656 3.10895 9.63055 3.10895 12.052C3.10895 14.4734 3.11907 14.7771 3.16283 15.728C3.17741 16.4678 3.31743 17.1997 3.57694 17.8927C3.80598 18.485 4.15627 19.023 4.60534 19.472C5.05442 19.9211 5.59237 20.2714 6.18471 20.5004C6.87768 20.7599 7.60963 20.8999 8.34942 20.9146C9.30048 20.9579 9.604 20.9684 12.0254 20.9684C14.4468 20.9684 14.7506 20.9583 15.7014 20.9146C16.4412 20.8999 17.1732 20.7599 17.8661 20.5004C18.4585 20.2714 18.9964 19.9211 19.4455 19.472C19.8946 19.023 20.2448 18.485 20.4739 17.8927C20.7337 17.1998 20.8738 16.4678 20.888 15.728C20.9313 14.7767 20.9412 14.4734 20.9412 12.052C20.9412 9.63055 20.9311 9.32679 20.888 8.37597C20.8735 7.63617 20.7334 6.9042 20.4739 6.21126C20.2449 5.61902 19.8947 5.08115 19.4457 4.63209C18.9968 4.18303 18.459 3.83268 17.8668 3.60349C17.1739 3.34378 16.4419 3.20375 15.7021 3.18938C14.7513 3.14585 14.4475 3.1355 12.0266 3.1355C9.60565 3.1355 9.30118 3.14562 8.34989 3.18938" fill="white"/>
</g>
<defs>
<radialGradient id="paint0_radial_5_12247" cx="0" cy="0" r="1" gradientUnits="userSpaceOnUse" gradientTransform="translate(1.55318 23.4744) scale(30.4711)">
<stop offset="0.09" stop-color="#FA8F21"/>
<stop offset="0.78" stop-color="#D82D7E"/>
</radialGradient>
<radialGradient id="paint1_radial_5_12247" cx="0" cy="0" r="1" gradientUnits="userSpaceOnUse" gradientTransform="translate(16.624 22.7035) scale(26.8148)">
<stop offset="0.64" stop-color="#8C3AAA" stop-opacity="0"/>
<stop offset="1" stop-color="#8C3AAA"/>
</radialGradient>
<clipPath id="clip0_5_12247">
<rect width="24" height="24" fill="white"/>
</clipPath>
</defs>
</svg>
