<svg width="24" height="24" viewBox="0 0 24 24" fill="none" xmlns="http://www.w3.org/2000/svg">
<g id="Language">
<g id="24 Language">
<path id="Vector" d="M5.73935 19.9643C5.66124 19.9636 5.58574 19.9361 5.5256 19.8862C3.99797 18.6506 2.89104 16.9717 2.35727 15.0808C1.82351 13.1899 1.88917 11.18 2.54522 9.32797C3.20126 7.47593 4.41541 5.87287 6.02044 4.73958C7.62546 3.6063 9.54239 2.99855 11.5072 3.00004C12.9601 2.99574 14.3942 3.32786 15.6973 3.97039C15.7779 4.01047 15.8392 4.08087 15.8678 4.16612C15.8964 4.25137 15.89 4.34449 15.85 4.42504C15.8305 4.46519 15.8032 4.50109 15.7698 4.53068C15.7363 4.56027 15.6973 4.58297 15.6551 4.59747C15.6129 4.61197 15.5682 4.61799 15.5236 4.61518C15.479 4.61237 15.4355 4.60079 15.3954 4.58111C13.4189 3.61055 11.151 3.41423 9.03715 4.03073C6.92333 4.64724 5.11649 6.03199 3.97168 7.91288C2.86125 9.73779 2.45075 11.9037 2.8164 14.0083C3.18205 16.113 4.29901 18.0135 5.95989 19.3569C5.99449 19.3852 6.02318 19.42 6.0443 19.4593C6.06542 19.4987 6.07857 19.5418 6.08298 19.5863C6.0874 19.6307 6.08299 19.6756 6.07002 19.7183C6.05704 19.7611 6.03576 19.8008 6.00739 19.8353C5.97543 19.8758 5.93469 19.9084 5.88825 19.9307C5.84181 19.9531 5.79089 19.9645 5.73935 19.9643ZM11.5072 22C9.99128 22.0041 8.49679 21.6421 7.15077 20.9448C7.07069 20.9034 7.01033 20.8319 6.98297 20.746C6.95561 20.6601 6.96349 20.5668 7.00488 20.4868C7.04627 20.4067 7.11779 20.3463 7.20368 20.3189C7.28958 20.2916 7.38283 20.2995 7.46292 20.3409C9.17268 21.2234 11.1241 21.5227 13.0198 21.1932C14.9155 20.8637 16.6514 19.9234 17.9631 18.5157C19.2747 17.1079 20.0901 15.3099 20.2851 13.3957C20.48 11.4815 20.0437 9.5561 19.0427 7.91288C18.5156 7.05048 17.8455 6.28407 17.0613 5.64646C16.9919 5.58999 16.9476 5.5084 16.9381 5.41944C16.9285 5.33047 16.9545 5.24135 17.0104 5.17146C17.0384 5.13661 17.073 5.10763 17.1122 5.0862C17.1515 5.06476 17.1945 5.05129 17.239 5.04657C17.2834 5.04184 17.3284 5.04594 17.3713 5.05864C17.4141 5.07134 17.4541 5.09239 17.4888 5.12057C18.3324 5.80677 19.053 6.63173 19.6195 7.56002C20.4963 9.00026 20.9739 10.6479 21.0034 12.3338C21.0329 14.0196 20.6132 15.683 19.7874 17.153C18.9615 18.6231 17.7593 19.8468 16.3041 20.6986C14.849 21.5504 13.1933 21.9996 11.5072 22Z" fill="black"/>
<path id="Vector_2" d="M11.1681 21.6607C11.084 21.6604 11.003 21.629 10.9408 21.5725C9.66648 20.4298 8.69543 18.9889 8.11453 17.3789C7.47021 15.8315 7.12484 14.176 7.09668 12.5C7.10041 10.8203 7.44676 9.15897 8.11453 7.61769C8.75148 6.03777 9.71452 4.60997 10.9408 3.42753C11.0082 3.37336 11.0938 3.347 11.1801 3.35385C11.2663 3.36069 11.3467 3.40022 11.4047 3.46435C11.4628 3.52848 11.4942 3.61236 11.4924 3.69886C11.4907 3.78535 11.456 3.86791 11.3954 3.92967C10.2367 5.04498 9.32575 6.39174 8.72185 7.88233C8.09673 9.34152 7.77468 10.9125 7.77525 12.5C7.79703 14.0865 8.11939 15.6546 8.72524 17.121C9.27369 18.6387 10.1913 19.9959 11.3954 21.0703C11.446 21.1163 11.4816 21.1766 11.4973 21.2431C11.5131 21.3097 11.5084 21.3795 11.4838 21.4433C11.4592 21.5071 11.4159 21.5621 11.3596 21.6008C11.3033 21.6396 11.2365 21.6605 11.1681 21.6607Z" fill="black"/>
<path id="Vector_3" d="M11.8464 21.6608C11.7779 21.6606 11.7112 21.6397 11.6548 21.6009C11.5985 21.5621 11.5552 21.5072 11.5306 21.4434C11.506 21.3795 11.5013 21.3098 11.5171 21.2432C11.5329 21.1766 11.5684 21.1164 11.619 21.0704C12.8231 19.996 13.7408 18.6388 14.2892 17.1211C14.8951 15.6547 15.2174 14.0866 15.2392 12.5001C15.2398 10.9126 14.9177 9.34161 14.2926 7.88242C13.6887 6.39182 12.7778 5.04507 11.619 3.92975C11.583 3.9008 11.5532 3.86478 11.5316 3.8239C11.51 3.78302 11.4969 3.73816 11.4933 3.69206C11.4896 3.64596 11.4954 3.59959 11.5103 3.55582C11.5252 3.51204 11.5489 3.47177 11.58 3.43749C11.611 3.40321 11.6487 3.37564 11.6908 3.35646C11.7329 3.33729 11.7784 3.32692 11.8247 3.326C11.8709 3.32507 11.9169 3.33361 11.9597 3.35108C12.0025 3.36856 12.0413 3.3946 12.0737 3.42761C13.306 4.60842 14.2749 6.03634 14.9169 7.61778C15.5788 9.16028 15.9194 10.8215 15.9178 12.5001C15.8896 14.1761 15.5442 15.8315 14.8999 17.379C14.3151 18.9904 13.3393 20.4314 12.0601 21.5725C12.0014 21.6261 11.9257 21.6573 11.8464 21.6608Z" fill="black"/>
<path id="Vector_4" d="M20.668 12.8393H2.34661C2.25662 12.8393 2.17033 12.8036 2.1067 12.7399C2.04307 12.6763 2.00732 12.59 2.00732 12.5C2.00732 12.41 2.04307 12.3237 2.1067 12.2601C2.17033 12.1965 2.25662 12.1607 2.34661 12.1607H20.668C20.7579 12.1607 20.8442 12.1965 20.9079 12.2601C20.9715 12.3237 21.0072 12.41 21.0072 12.5C21.0072 12.59 20.9715 12.6763 20.9079 12.7399C20.8442 12.8036 20.7579 12.8393 20.668 12.8393ZM19.3108 8.08934H3.70375C3.61376 8.08934 3.52746 8.05359 3.46384 7.98996C3.40021 7.92633 3.36446 7.84003 3.36446 7.75005C3.36446 7.66007 3.40021 7.57377 3.46384 7.51014C3.52746 7.44651 3.61376 7.41077 3.70375 7.41077H19.3108C19.4008 7.41077 19.4871 7.44651 19.5507 7.51014C19.6144 7.57377 19.6501 7.66007 19.6501 7.75005C19.6501 7.84003 19.6144 7.92633 19.5507 7.98996C19.4871 8.05359 19.4008 8.08934 19.3108 8.08934ZM19.3108 17.5893H3.70375C3.61376 17.5893 3.52746 17.5536 3.46384 17.4899C3.40021 17.4263 3.36446 17.34 3.36446 17.25C3.36446 17.16 3.40021 17.0737 3.46384 17.0101C3.52746 16.9465 3.61376 16.9107 3.70375 16.9107H19.3108C19.4008 16.9107 19.4871 16.9465 19.5507 17.0101C19.6144 17.0737 19.6501 17.16 19.6501 17.25C19.6501 17.34 19.6144 17.4263 19.5507 17.4899C19.4871 17.5536 19.4008 17.5893 19.3108 17.5893Z" fill="black"/>
<path id="Vector_5" d="M11.5073 21.6607C11.4173 21.6607 11.331 21.625 11.2673 21.5613C11.2037 21.4977 11.168 21.4114 11.168 21.3214V3.67864C11.168 3.58866 11.2037 3.50236 11.2673 3.43873C11.331 3.3751 11.4173 3.33936 11.5073 3.33936C11.5972 3.33936 11.6835 3.3751 11.7472 3.43873C11.8108 3.50236 11.8465 3.58866 11.8465 3.67864V21.3214C11.8465 21.4114 11.8108 21.4977 11.7472 21.5613C11.6835 21.625 11.5972 21.6607 11.5073 21.6607Z" fill="black"/>
</g>
</g>
</svg>
