<svg width="20" height="21" viewBox="0 0 20 21" fill="none" xmlns="http://www.w3.org/2000/svg">
<g id="location">
<path id="Vector" d="M10.0278 2.16669C13.9331 2.18203 17.0987 5.36833 17.0834 9.26862V9.34608C17.0306 12.1334 15.3549 14.4463 13.9588 15.8955C13.5614 16.3099 13.1385 16.7074 12.7024 17.0787C12.4411 17.3016 12.0489 17.2709 11.8257 17.01C11.6025 16.7484 11.634 16.3567 11.8952 16.1338C12.2992 15.7896 12.6921 15.4198 13.0616 15.0346C14.3041 13.7455 15.794 11.7073 15.8393 9.32343C15.8518 6.04871 13.2431 3.42147 10.0227 3.40832H10C6.7906 3.40832 4.17315 6.00997 4.16071 9.21746C4.21559 10.8018 4.75123 12.308 5.71055 13.5716C6.83011 15.0624 8.52849 16.6409 10.1427 17.6918C10.431 17.8789 10.5122 18.2633 10.3242 18.5513C10.2056 18.734 10.0059 18.8334 9.80246 18.8334C9.68611 18.8334 9.56903 18.8012 9.46366 18.7325C7.73528 17.6078 5.91617 15.9167 4.71684 14.3199C3.60386 12.8532 2.98114 11.1029 2.91675 9.26058C2.93211 5.32156 6.10715 2.16669 10 2.16669H10.0278ZM9.99783 6.65286C11.484 6.65286 12.6936 7.86014 12.6936 9.34513C12.6936 10.8294 11.484 12.0367 9.99783 12.0367C8.51166 12.0367 7.30209 10.8294 7.30209 9.34513C7.30209 9.00166 7.58088 8.72395 7.92407 8.72395C8.26726 8.72395 8.54605 9.00166 8.54605 9.34513C8.54605 10.1439 9.1973 10.795 9.99783 10.795C10.7984 10.795 11.4496 10.1439 11.4496 9.34513C11.4496 8.54564 10.7984 7.89449 9.99783 7.89449C9.65464 7.89449 9.37585 7.61679 9.37585 7.27404C9.37585 6.93056 9.65464 6.65286 9.99783 6.65286Z" fill="url(#paint0_linear_273_9879)"/>
</g>
<defs>
<linearGradient id="paint0_linear_273_9879" x1="2.91675" y1="3.50597" x2="18.1194" y2="4.75707" gradientUnits="userSpaceOnUse">
<stop stop-color="#44C9E1"/>
<stop offset="1" stop-color="#F59022"/>
</linearGradient>
</defs>
</svg>
