<svg width="24" height="24" viewBox="0 0 24 24" fill="none" xmlns="http://www.w3.org/2000/svg">
<g id="vuesax/outline/lock">
<g id="vuesax/outline/lock_2">
<g id="lock">
<g id="Group 162356">
<path id="Vector" d="M17.5812 10.8372C17.1998 10.8372 16.8835 10.5209 16.8835 10.1395V8.27907C16.8835 5.34884 16.0556 3.39535 11.9998 3.39535C7.94396 3.39535 7.11605 5.34884 7.11605 8.27907V10.1395C7.11605 10.5209 6.79977 10.8372 6.41838 10.8372C6.03698 10.8372 5.7207 10.5209 5.7207 10.1395V8.27907C5.7207 5.5814 6.37187 2 11.9998 2C17.6277 2 18.2788 5.5814 18.2788 8.27907V10.1395C18.2788 10.5209 17.9626 10.8372 17.5812 10.8372Z" fill="#0A1214"/>
<path id="Vector_2" d="M16.6512 22H7.34884C3.24651 22 2 20.7535 2 16.6512V14.7907C2 10.6884 3.24651 9.44189 7.34884 9.44189H16.6512C20.7535 9.44189 22 10.6884 22 14.7907V16.6512C22 20.7535 20.7535 22 16.6512 22ZM7.34884 10.8372C4.0186 10.8372 3.39535 11.4698 3.39535 14.7907V16.6512C3.39535 19.9721 4.0186 20.6047 7.34884 20.6047H16.6512C19.9814 20.6047 20.6047 19.9721 20.6047 16.6512V14.7907C20.6047 11.4698 19.9814 10.8372 16.6512 10.8372H7.34884Z" fill="#0A1214"/>
<path id="Vector_3" d="M8.27887 16.6512C8.15794 16.6512 8.037 16.6233 7.92537 16.5768C7.80444 16.5303 7.71143 16.4651 7.61841 16.3814C7.45097 16.2047 7.34863 15.9721 7.34863 15.721C7.34863 15.6 7.37653 15.4791 7.42304 15.3675C7.46955 15.2465 7.53469 15.1535 7.61841 15.0605C7.71143 14.9768 7.80444 14.9116 7.92537 14.8651C8.26026 14.7163 8.67886 14.8 8.93932 15.0605C9.02304 15.1535 9.08818 15.2558 9.13469 15.3675C9.1812 15.4791 9.2091 15.6 9.2091 15.721C9.2091 15.9628 9.10676 16.2047 8.93932 16.3814C8.76258 16.5489 8.52073 16.6512 8.27887 16.6512Z" fill="#0A1214"/>
<path id="Vector_4" d="M12.0001 16.6512C11.7582 16.6512 11.5163 16.5489 11.3396 16.3814C11.1722 16.2047 11.0698 15.9721 11.0698 15.721C11.0698 15.6 11.0884 15.4791 11.1442 15.3675C11.1907 15.2559 11.2559 15.1535 11.3396 15.0605C11.5536 14.8466 11.8791 14.7442 12.1768 14.8093C12.2419 14.8186 12.2977 14.8372 12.3535 14.8652C12.4094 14.8838 12.4652 14.9117 12.521 14.9489C12.5675 14.9768 12.614 15.0233 12.6605 15.0605C12.7442 15.1535 12.8094 15.2559 12.8559 15.3675C12.9024 15.4791 12.9303 15.6 12.9303 15.721C12.9303 15.9721 12.828 16.2047 12.6605 16.3814C12.614 16.4186 12.5675 16.4558 12.521 16.4931C12.4652 16.5303 12.4094 16.5582 12.3535 16.5768C12.2977 16.6047 12.2419 16.6233 12.1768 16.6326C12.121 16.6419 12.0559 16.6512 12.0001 16.6512Z" fill="#0A1214"/>
<path id="Vector_5" d="M15.7208 16.6512C15.4696 16.6512 15.237 16.5489 15.0603 16.3814C14.9766 16.2884 14.9114 16.1861 14.8649 16.0745C14.8184 15.9628 14.7905 15.8419 14.7905 15.721C14.7905 15.4791 14.8929 15.2373 15.0603 15.0605C15.1068 15.0233 15.1533 14.9861 15.1998 14.9489C15.2556 14.9117 15.3115 14.8838 15.3673 14.8652C15.4231 14.8372 15.4789 14.8186 15.5347 14.8093C15.8417 14.7442 16.158 14.8466 16.3812 15.0605C16.5487 15.2373 16.651 15.4698 16.651 15.721C16.651 15.8419 16.6231 15.9628 16.5766 16.0745C16.5301 16.1954 16.4649 16.2884 16.3812 16.3814C16.2045 16.5489 15.9626 16.6512 15.7208 16.6512Z" fill="#0A1214"/>
</g>
</g>
</g>
</g>
</svg>
