<svg width="406" height="420" viewBox="0 0 406 420" fill="none" xmlns="http://www.w3.org/2000/svg">
<g clip-path="url(#clip0_2858_30020)">
<path d="M166.98 85.77H89.9102C85.1363 85.77 80.5579 87.6664 77.1823 91.0421C73.8066 94.4177 71.9102 98.9961 71.9102 103.77V182.88C71.9144 187.647 73.8097 192.218 77.1802 195.59L295.48 413.89C298.853 417.257 303.424 419.148 308.19 419.15H387.98C392.754 419.15 397.332 417.254 400.708 413.878C404.084 410.502 405.98 405.924 405.98 401.15V322.74C405.974 320.368 405.499 318.02 404.583 315.832C403.666 313.644 402.327 311.658 400.64 309.99L179.64 90.99C176.276 87.6445 171.724 85.7676 166.98 85.77Z" fill="url(#paint0_linear_2858_30020)"/>
<path d="M288.52 153.9L367.78 233.16C369.857 235.238 372.324 236.886 375.038 238.01C377.753 239.134 380.662 239.712 383.6 239.71C386.538 239.713 389.448 239.136 392.163 238.014C394.879 236.891 397.346 235.245 399.424 233.168C401.503 231.091 403.152 228.626 404.276 225.911C405.401 223.197 405.98 220.288 405.98 217.35V112.35C405.981 109.411 405.402 106.501 404.277 103.786C403.151 101.072 401.501 98.6059 399.42 96.53L322.65 19.8C322.159 19.3112 321.547 18.9612 320.876 18.7854C320.205 18.6096 319.5 18.6144 318.832 18.7992C318.164 18.9841 317.556 19.3423 317.071 19.8377C316.586 20.3331 316.241 20.948 316.07 21.62L285.5 142.99C285.019 144.915 285.044 146.931 285.574 148.843C286.103 150.755 287.118 152.497 288.52 153.9Z" fill="url(#paint1_linear_2858_30020)"/>
<path d="M335.98 42.66V145.11C335.98 151.284 333.527 157.206 329.161 161.571C324.795 165.937 318.874 168.39 312.7 168.39C309.642 168.392 306.615 167.79 303.79 166.62C300.966 165.45 298.4 163.734 296.24 161.57L220.24 85.62C216.957 82.337 214.353 78.4394 212.577 74.1498C210.801 69.8602 209.888 65.2627 209.89 60.62V58.25C209.89 37.32 221.13 17.67 239.73 8.05C248.894 3.27193 258.987 0.542284 269.31 0.0499979C299.69 -1.4 320.48 16.52 330.02 27.11C333.871 31.372 335.995 36.916 335.98 42.66Z" fill="#1E3143"/>
<path d="M164.87 333.66L91.2802 256.26C87.7101 252.507 82.8032 250.315 77.6258 250.159C72.4485 250.004 67.4189 251.898 63.6302 255.43L15.1302 300.67C11.9869 303.599 9.45972 307.126 7.6968 311.044C5.93389 314.963 4.97065 319.193 4.86355 323.488C4.75645 327.784 5.50764 332.057 7.07308 336.058C8.63853 340.059 10.9867 343.708 13.9802 346.79L76.8402 411.47C79.1985 413.894 82.0191 415.819 85.1349 417.133C88.2508 418.447 91.5986 419.123 94.9802 419.12H123.92C130.967 419.12 137.945 417.732 144.455 415.035C150.965 412.339 156.881 408.386 161.864 403.403C166.846 398.421 170.799 392.505 173.496 385.995C176.192 379.485 177.58 372.507 177.58 365.46C177.58 353.622 173.029 342.237 164.87 333.66Z" fill="url(#paint2_linear_2858_30020)"/>
<path d="M-0.0203833 323.32V220.87C-0.0203844 217.811 0.582424 214.782 1.7536 211.957C2.92478 209.131 4.64137 206.563 6.80524 204.401C8.96911 202.239 11.5378 200.525 14.3646 199.356C17.1914 198.188 20.2207 197.587 23.2796 197.59C26.337 197.588 29.3646 198.19 32.1892 199.36C35.0137 200.53 37.5795 202.246 39.7396 204.41L115.74 280.41C119.022 283.693 121.626 287.591 123.402 291.88C125.178 296.17 126.091 300.767 126.09 305.41V307.78C126.09 328.72 114.85 348.37 96.2496 357.98C87.0855 362.758 76.9927 365.487 66.6696 365.98C36.2896 367.43 15.4996 349.51 5.95963 338.92C2.09317 334.646 -0.0392823 329.083 -0.0203833 323.32Z" fill="#1E3143"/>
<path d="M95.0305 13.84H17.9805C13.2066 13.84 8.62819 15.7364 5.25253 19.1121C1.87688 22.4877 -0.0195312 27.0661 -0.0195312 31.84V110.95C-0.0153331 115.717 1.87995 120.288 5.25046 123.66L223.55 341.96C226.921 345.324 231.488 347.216 236.25 347.22H316.03C320.804 347.22 325.383 345.324 328.758 341.948C332.134 338.572 334.03 333.994 334.03 329.22V250.81C334.028 248.435 333.556 246.084 332.642 243.892C331.727 241.701 330.387 239.712 328.7 238.04L107.7 19.04C104.331 15.6994 99.7753 13.8296 95.0305 13.84Z" fill="#1E3143"/>
</g>
<defs>
<linearGradient id="paint0_linear_2858_30020" x1="71.9302" y1="252.45" x2="405.96" y2="252.45" gradientUnits="userSpaceOnUse">
<stop stop-color="#44C9E1"/>
<stop offset="0.14" stop-color="#56C3CD"/>
<stop offset="0.42" stop-color="#85B49B"/>
<stop offset="0.82" stop-color="#D09C4A"/>
<stop offset="1" stop-color="#F59022"/>
</linearGradient>
<linearGradient id="paint1_linear_2858_30020" x1="309.66" y1="175.04" x2="393.81" y2="90.89" gradientUnits="userSpaceOnUse">
<stop stop-color="#44C9E1"/>
<stop offset="0.14" stop-color="#56C3CD"/>
<stop offset="0.42" stop-color="#85B49B"/>
<stop offset="0.82" stop-color="#D09C4A"/>
<stop offset="1" stop-color="#F59022"/>
</linearGradient>
<linearGradient id="paint2_linear_2858_30020" x1="52.9502" y1="387.56" x2="137.77" y2="302.75" gradientUnits="userSpaceOnUse">
<stop stop-color="#44C9E1"/>
<stop offset="0.14" stop-color="#56C3CD"/>
<stop offset="0.42" stop-color="#85B49B"/>
<stop offset="0.82" stop-color="#D09C4A"/>
<stop offset="1" stop-color="#F59022"/>
</linearGradient>
<clipPath id="clip0_2858_30020">
<rect width="405.95" height="419.12" fill="white"/>
</clipPath>
</defs>
</svg>
