<svg width="14" height="14" viewBox="0 0 14 14" fill="none" xmlns="http://www.w3.org/2000/svg">
<path d="M10.9997 9.6665V6.33317C10.9997 4.2865 9.90633 2.57317 7.99966 2.11984V1.6665C7.99966 1.11317 7.54633 0.666504 6.99299 0.666504C6.43966 0.666504 5.99966 1.11317 5.99966 1.6665V2.11984C4.08633 2.57317 2.99966 4.27984 2.99966 6.33317V9.6665L2.13299 10.5265C1.71299 10.9465 2.00633 11.6665 2.59966 11.6665H11.3797C11.973 11.6665 12.273 10.9465 11.853 10.5265L10.9997 9.6665ZM6.99299 13.6665C7.72633 13.6665 8.32633 13.0665 8.32633 12.3332H5.65966C5.65966 13.0665 6.25299 13.6665 6.99299 13.6665ZM3.51299 2.15317C3.79299 1.89984 3.79966 1.4665 3.53299 1.19984C3.27966 0.946504 2.86633 0.939837 2.60633 1.1865C1.46633 2.2265 0.679659 3.63984 0.426326 5.2265C0.366326 5.63317 0.679659 5.99984 1.09299 5.99984C1.41299 5.99984 1.69299 5.7665 1.74633 5.4465C1.94633 4.15317 2.58633 2.99984 3.51299 2.15317ZM11.3997 1.1865C11.133 0.939837 10.7197 0.946504 10.4663 1.19984C10.1997 1.4665 10.213 1.89317 10.4863 2.1465C11.4063 2.99317 12.053 4.1465 12.253 5.43984C12.2997 5.75984 12.5797 5.99317 12.9063 5.99317C13.313 5.99317 13.633 5.6265 13.5663 5.21984C13.313 3.63984 12.533 2.23317 11.3997 1.1865Z" fill="url(#paint0_linear_3252_147)"/>
<defs>
<linearGradient id="paint0_linear_3252_147" x1="5.07843" y1="5.27067" x2="14.0626" y2="4.3665" gradientUnits="userSpaceOnUse">
<stop stop-color="#F59022"/>
<stop offset="1" stop-color="#44C9E1"/>
</linearGradient>
</defs>
</svg>
