<svg width="12" height="14" viewBox="0 0 12 14" fill="none" xmlns="http://www.w3.org/2000/svg">
<path d="M10.86 10.5265L10 9.6665V6.33317C10 4.2865 8.9067 2.57317 7.00003 2.11984V1.6665C7.00003 1.11317 6.55337 0.666504 6.00003 0.666504C5.4467 0.666504 5.00003 1.11317 5.00003 1.6665V2.11984C3.0867 2.57317 2.00003 4.27984 2.00003 6.33317V9.6665L1.14003 10.5265C0.720034 10.9465 1.01337 11.6665 1.6067 11.6665H10.3867C10.9867 11.6665 11.28 10.9465 10.86 10.5265ZM8.6667 10.3332H3.33337V6.33317C3.33337 4.67984 4.34003 3.33317 6.00003 3.33317C7.66003 3.33317 8.6667 4.67984 8.6667 6.33317V10.3332ZM6.00003 13.6665C6.73337 13.6665 7.33337 13.0665 7.33337 12.3332H4.6667C4.6667 13.0665 5.26003 13.6665 6.00003 13.6665Z" fill="#1E3143"/>
<path d="M10.86 10.5265L10 9.6665V6.33317C10 4.2865 8.9067 2.57317 7.00003 2.11984V1.6665C7.00003 1.11317 6.55337 0.666504 6.00003 0.666504C5.4467 0.666504 5.00003 1.11317 5.00003 1.6665V2.11984C3.0867 2.57317 2.00003 4.27984 2.00003 6.33317V9.6665L1.14003 10.5265C0.720034 10.9465 1.01337 11.6665 1.6067 11.6665H10.3867C10.9867 11.6665 11.28 10.9465 10.86 10.5265ZM8.6667 10.3332H3.33337V6.33317C3.33337 4.67984 4.34003 3.33317 6.00003 3.33317C7.66003 3.33317 8.6667 4.67984 8.6667 6.33317V10.3332ZM6.00003 13.6665C6.73337 13.6665 7.33337 13.0665 7.33337 12.3332H4.6667C4.6667 13.0665 5.26003 13.6665 6.00003 13.6665Z" fill="black" fill-opacity="0.2"/>
</svg>
