<svg width="24" height="24" viewBox="0 0 24 24" fill="none" xmlns="http://www.w3.org/2000/svg">
<g id="Notification" clip-path="url(#clip0_5_8129)">
<path id="Vector" d="M16.7409 4.92L16.9809 4.224C17.0769 3.984 16.9569 3.696 16.6929 3.624C16.4529 3.528 16.1649 3.672 16.0929 3.912L15.8289 4.584C12.7329 3.744 9.44492 5.376 8.31692 8.4L6.75692 12.672L3.87692 13.992C3.49292 14.16 3.51692 14.712 3.92492 14.856L9.10892 16.752C8.89292 17.976 9.58892 19.2 10.7889 19.632C11.9889 20.064 13.3329 19.56 13.9569 18.504L19.1889 20.376C19.4289 20.472 19.7169 20.352 19.8129 20.088C19.8609 19.944 19.8369 19.8 19.7649 19.68L18.4449 16.872L20.0049 12.6C21.1329 9.576 19.6689 6.24 16.7409 4.92ZM11.1489 18.744C10.4289 18.48 9.99692 17.808 10.0449 17.088L13.0689 18.168C12.6369 18.744 11.8449 18.984 11.1489 18.744ZM19.1169 12.288L17.4849 16.728C17.4369 16.848 17.4369 16.968 17.5089 17.088L18.4449 19.08L13.9089 17.472L9.85292 16.008L5.31692 14.376L7.33292 13.44C7.45292 13.392 7.52492 13.296 7.57292 13.176L9.20492 8.736C10.1889 6.048 13.2129 4.656 15.9489 5.616C18.6849 6.6 20.1009 9.6 19.1169 12.288Z" fill="#0A1214"/>
<path id="Vector_2" d="M-168.96 -189.6V214.56H259.2V-189.6H-168.96ZM-170.88 -191.52H261.12V216.48H-170.88V-191.52Z" fill="#0000FF"/>
</g>
<defs>
<clipPath id="clip0_5_8129">
<rect width="24" height="24" fill="white" transform="matrix(-1 0 0 1 24 0)"/>
</clipPath>
</defs>
</svg>
