<svg width="26" height="26" viewBox="0 0 26 26" fill="none" xmlns="http://www.w3.org/2000/svg">
<g id="package accept" clip-path="url(#clip0_293_7960)">
<path id="Vector" fill-rule="evenodd" clip-rule="evenodd" d="M25.6697 20.304C25.6697 22.1617 24.1496 23.6817 22.2921 23.6817H3.37766C1.51988 23.6817 0 22.1617 0 20.304V3.5286C0 1.67103 1.51988 0.151245 3.37766 0.151245H22.2921C24.1496 0.151245 25.6697 1.67103 25.6697 3.5286V20.304Z" fill="url(#paint0_linear_293_7960)"/>
<path id="Vector_2" opacity="0.2" fill-rule="evenodd" clip-rule="evenodd" d="M22.2921 23.1499H3.37766C1.51988 23.1499 0 21.6298 0 19.7722V20.304C0 22.1617 1.51988 23.6817 3.37766 23.6817H22.2921C24.1496 23.6817 25.6697 22.1617 25.6697 20.304V19.7722C25.6697 21.6298 24.1496 23.1499 22.2921 23.1499Z" fill="#2C2C2C"/>
<path id="Vector_3" opacity="0.1" fill-rule="evenodd" clip-rule="evenodd" d="M8.89429 0.328491V12.7127C8.89429 12.7127 10.1328 10.7987 10.6956 10.7987C11.2584 10.7987 11.8215 12.7127 12.2719 12.7127C12.7222 12.7127 13.1161 10.7987 13.7357 10.7987C14.3548 10.7987 15.5368 12.8252 15.5368 12.8252V0.328491H8.89429Z" fill="#2C2C2C"/>
<path id="Vector_4" fill-rule="evenodd" clip-rule="evenodd" d="M8.89429 0.151245V12.5355C8.89429 12.5355 10.1328 10.6214 10.6956 10.6214C11.2584 10.6214 11.8215 12.5355 12.2719 12.5355C12.7222 12.5355 13.1161 10.6214 13.7357 10.6214C14.3548 10.6214 15.5368 12.648 15.5368 12.648V0.151245H8.89429Z" fill="#FFEEE2"/>
<path id="Vector_5" opacity="0.1" fill-rule="evenodd" clip-rule="evenodd" d="M13.7357 10.4441C13.1161 10.4441 12.7222 12.3581 12.2719 12.3581C11.8215 12.3581 11.2584 10.4441 10.6956 10.4441C10.1328 10.4441 8.89429 12.3581 8.89429 12.3581V12.5354C8.89429 12.5354 10.1328 10.6213 10.6956 10.6213C11.2584 10.6213 11.8215 12.5354 12.2719 12.5354C12.7222 12.5354 13.1161 10.6213 13.7357 10.6213C14.3548 10.6213 15.5368 12.6479 15.5368 12.6479V12.4707C15.5368 12.4707 14.3548 10.4441 13.7357 10.4441Z" fill="#2C2C2C"/>
<path id="Vector_6" fill-rule="evenodd" clip-rule="evenodd" d="M13.7357 20.4165C13.7357 21.0356 13.2288 21.5425 12.6096 21.5425H3.60267C2.98344 21.5425 2.47705 21.0356 2.47705 20.4165V18.052C2.47705 17.4329 2.98344 16.9264 3.60267 16.9264H12.6096C13.2288 16.9264 13.7357 17.4329 13.7357 18.052V20.4165Z" fill="url(#paint1_linear_293_7960)"/>
<path id="Vector_7" fill-rule="evenodd" clip-rule="evenodd" d="M3.8782 20.8297C3.8782 20.9533 3.79076 21.0543 3.68412 21.0543C3.57748 21.0543 3.49023 20.9533 3.49023 20.8297V17.8648C3.49023 17.7409 3.57748 17.6394 3.68412 17.6394C3.79076 17.6394 3.8782 17.7409 3.8782 17.8648V20.8297Z" fill="url(#paint2_linear_293_7960)"/>
<path id="Vector_8" fill-rule="evenodd" clip-rule="evenodd" d="M5.02049 20.8297C5.02025 20.8893 4.99645 20.9463 4.95428 20.9884C4.91211 21.0305 4.85501 21.0542 4.79543 21.0543H4.51237C4.45277 21.0542 4.39563 21.0306 4.35342 20.9885C4.31122 20.9464 4.28738 20.8893 4.28711 20.8297V17.8648C4.28711 17.7409 4.38857 17.6394 4.51237 17.6394H4.79543C4.91903 17.6394 5.02049 17.7409 5.02049 17.8648V20.8297Z" fill="url(#paint3_linear_293_7960)"/>
<path id="Vector_9" fill-rule="evenodd" clip-rule="evenodd" d="M6.62318 20.8297C6.62291 20.8893 6.59905 20.9464 6.5568 20.9885C6.51455 21.0306 6.45736 21.0543 6.39771 21.0543H5.70232C5.64271 21.0542 5.58557 21.0306 5.54336 20.9885C5.50116 20.9464 5.47732 20.8893 5.47705 20.8297V17.8648C5.47705 17.7409 5.57851 17.6394 5.70232 17.6394H6.39771C6.52172 17.6394 6.62318 17.7409 6.62318 17.8648V20.8297Z" fill="url(#paint4_linear_293_7960)"/>
<path id="Vector_10" fill-rule="evenodd" clip-rule="evenodd" d="M7.65263 20.8297C7.65239 20.8893 7.62859 20.9463 7.58642 20.9884C7.54426 21.0305 7.48715 21.0542 7.42757 21.0543H7.23328C7.17364 21.0543 7.11645 21.0306 7.0742 20.9885C7.03195 20.9464 7.00808 20.8893 7.00781 20.8297V17.8648C7.00781 17.7409 7.10927 17.6394 7.23328 17.6394H7.42757C7.55117 17.6394 7.65263 17.7409 7.65263 17.8648V20.8297Z" fill="url(#paint5_linear_293_7960)"/>
<path id="Vector_11" fill-rule="evenodd" clip-rule="evenodd" d="M8.20046 20.8297C8.20046 20.9533 8.11443 21.0543 8.00901 21.0543C7.90379 21.0543 7.81787 20.9533 7.81787 20.8297V17.8648C7.81787 17.7409 7.90379 17.6394 8.00901 17.6394C8.11443 17.6394 8.20046 17.7409 8.20046 17.8648V20.8297Z" fill="url(#paint6_linear_293_7960)"/>
<path id="Vector_12" fill-rule="evenodd" clip-rule="evenodd" d="M9.61196 20.8297C9.61175 20.8893 9.58792 20.9464 9.54571 20.9885C9.50349 21.0306 9.44632 21.0543 9.3867 21.0543H9.19129C9.13166 21.0542 9.0745 21.0306 9.03226 20.9885C8.99003 20.9464 8.96614 20.8893 8.96582 20.8297V17.8648C8.96606 17.8051 8.9899 17.7479 9.03213 17.7056C9.07436 17.6634 9.13157 17.6396 9.19129 17.6394H9.3867C9.51081 17.6394 9.61196 17.7409 9.61196 17.8648V20.8297Z" fill="url(#paint7_linear_293_7960)"/>
<path id="Vector_13" fill-rule="evenodd" clip-rule="evenodd" d="M10.2707 20.8297C10.2707 20.9533 10.1912 21.0543 10.0941 21.0543C9.99711 21.0543 9.91748 20.9533 9.91748 20.8297V17.8648C9.91748 17.7409 9.99711 17.6394 10.0941 17.6394C10.1912 17.6394 10.2707 17.7409 10.2707 17.8648V20.8297Z" fill="url(#paint8_linear_293_7960)"/>
<path id="Vector_14" fill-rule="evenodd" clip-rule="evenodd" d="M11.3783 20.8297C11.3781 20.8893 11.3543 20.9464 11.3122 20.9884C11.27 21.0305 11.2129 21.0542 11.1533 21.0543H10.9746C10.915 21.0543 10.8578 21.0307 10.8156 20.9886C10.7733 20.9465 10.7495 20.8893 10.7493 20.8297V17.8648C10.7493 17.7409 10.8503 17.6394 10.9746 17.6394H11.1533C11.2772 17.6394 11.3783 17.7409 11.3783 17.8648V20.8297Z" fill="url(#paint9_linear_293_7960)"/>
<path id="Vector_15" fill-rule="evenodd" clip-rule="evenodd" d="M12.7375 20.8297C12.7373 20.8893 12.7135 20.9464 12.6713 20.9884C12.6291 21.0305 12.572 21.0542 12.5124 21.0543H12.0974C12.0378 21.0542 11.9807 21.0305 11.9386 20.9884C11.8965 20.9463 11.8727 20.8893 11.8726 20.8297V17.8648C11.8726 17.7409 11.9736 17.6394 12.0974 17.6394H12.5124C12.6362 17.6394 12.7375 17.7409 12.7375 17.8648V20.8297Z" fill="url(#paint10_linear_293_7960)"/>
<path id="Vector_16" d="M26 17.8272C26 22.2571 22.349 25.8486 17.8454 25.8486C13.3414 25.8486 9.69043 22.2571 9.69043 17.8272C9.69043 13.3975 13.3415 9.80664 17.8454 9.80664C22.349 9.80664 26 13.3975 26 17.8272Z" fill="url(#paint11_linear_293_7960)"/>
<path id="Vector_17" opacity="0.2" d="M17.8454 25.5812C13.3868 25.5812 9.7667 22.0616 9.69388 17.6937C9.69307 17.7383 9.69043 17.7827 9.69043 17.8273C9.69043 22.2571 13.3415 25.8487 17.8454 25.8487C22.349 25.8487 26 22.2571 26 17.8273C26 17.7827 25.9973 17.7383 25.9966 17.6937C25.9236 22.0616 22.3033 25.5812 17.8454 25.5812Z" fill="#2C2C2C"/>
<path id="Vector_18" opacity="0.1" fill-rule="evenodd" clip-rule="evenodd" d="M13.2299 17.124C13.403 16.9357 13.7098 16.9107 13.9113 17.0687L16.2723 18.9162C16.4745 19.074 16.792 19.0595 16.9776 18.884L21.53 14.5871C21.7163 14.4112 22.0158 14.4159 22.1961 14.5981L23.2996 15.7131C23.3423 15.7561 23.376 15.8072 23.3987 15.8634C23.4213 15.9196 23.4325 15.9798 23.4315 16.0404C23.4306 16.101 23.4175 16.1608 23.393 16.2163C23.3686 16.2717 23.3332 16.3217 23.2892 16.3633L17.1884 22.1355C17.0029 22.3113 16.6828 22.3294 16.4776 22.1757L12.182 18.9525C11.9767 18.7988 11.9504 18.519 12.1232 18.3304L13.2299 17.124Z" fill="#2C2C2C"/>
<path id="Vector_19" fill-rule="evenodd" clip-rule="evenodd" d="M13.2299 16.7675C13.403 16.5791 13.7098 16.5541 13.9113 16.7121L16.2723 18.5596C16.4745 18.7175 16.792 18.7029 16.9776 18.5274L21.53 14.2305C21.7163 14.0549 22.0158 14.0598 22.1961 14.2416L23.2996 15.3565C23.3423 15.3995 23.376 15.4506 23.3987 15.5068C23.4213 15.563 23.4325 15.6232 23.4315 15.6838C23.4306 15.7444 23.4175 15.8042 23.393 15.8597C23.3686 15.9151 23.3332 15.9651 23.2892 16.0067L17.1884 21.7789C17.0029 21.9547 16.6828 21.9728 16.4776 21.8191L12.182 18.5959C11.9767 18.4422 11.9504 18.1625 12.1232 17.9738L13.2299 16.7675Z" fill="white"/>
<path id="Vector_20" opacity="0.2" fill-rule="evenodd" clip-rule="evenodd" d="M23.2892 15.8146L17.1885 21.5872C17.0029 21.7628 16.6829 21.7808 16.4776 21.6271L12.182 18.4039C12.1026 18.3453 12.0462 18.2607 12.0227 18.1648C11.9849 18.3209 12.0388 18.4892 12.182 18.5961L16.4776 21.8193C16.6829 21.9731 17.0029 21.955 17.1885 21.7791L23.2892 16.0069C23.3457 15.9534 23.3875 15.8863 23.4105 15.812C23.4335 15.7377 23.4369 15.6587 23.4204 15.5826C23.401 15.6714 23.3552 15.7522 23.2892 15.8146Z" fill="#2C2C2C"/>
</g>
<defs>
<linearGradient id="paint0_linear_293_7960" x1="12.8349" y1="0.52337" x2="12.8349" y2="23.4511" gradientUnits="userSpaceOnUse">
<stop stop-color="#FFBC3A"/>
<stop offset="1" stop-color="#F59022"/>
</linearGradient>
<linearGradient id="paint1_linear_293_7960" x1="8.10625" y1="13.6614" x2="8.10625" y2="27.2845" gradientUnits="userSpaceOnUse">
<stop stop-color="#FEFEFE"/>
<stop offset="1" stop-color="#E2E2E2"/>
</linearGradient>
<linearGradient id="paint2_linear_293_7960" x1="3.68422" y1="17.2464" x2="3.68422" y2="21.1827" gradientUnits="userSpaceOnUse">
<stop stop-color="#3D3D3D"/>
<stop offset="1" stop-color="#262626"/>
</linearGradient>
<linearGradient id="paint3_linear_293_7960" x1="4.65385" y1="17.2464" x2="4.65385" y2="21.1827" gradientUnits="userSpaceOnUse">
<stop stop-color="#3D3D3D"/>
<stop offset="1" stop-color="#262626"/>
</linearGradient>
<linearGradient id="paint4_linear_293_7960" x1="6.05017" y1="17.2464" x2="6.05017" y2="21.1827" gradientUnits="userSpaceOnUse">
<stop stop-color="#3D3D3D"/>
<stop offset="1" stop-color="#262626"/>
</linearGradient>
<linearGradient id="paint5_linear_293_7960" x1="7.33017" y1="17.2464" x2="7.33017" y2="21.1827" gradientUnits="userSpaceOnUse">
<stop stop-color="#3D3D3D"/>
<stop offset="1" stop-color="#262626"/>
</linearGradient>
<linearGradient id="paint6_linear_293_7960" x1="8.00911" y1="17.2464" x2="8.00911" y2="21.1827" gradientUnits="userSpaceOnUse">
<stop stop-color="#3D3D3D"/>
<stop offset="1" stop-color="#262626"/>
</linearGradient>
<linearGradient id="paint7_linear_293_7960" x1="9.28889" y1="17.2464" x2="9.28889" y2="21.1827" gradientUnits="userSpaceOnUse">
<stop stop-color="#3D3D3D"/>
<stop offset="1" stop-color="#262626"/>
</linearGradient>
<linearGradient id="paint8_linear_293_7960" x1="10.0942" y1="17.2464" x2="10.0942" y2="21.1827" gradientUnits="userSpaceOnUse">
<stop stop-color="#3D3D3D"/>
<stop offset="1" stop-color="#262626"/>
</linearGradient>
<linearGradient id="paint9_linear_293_7960" x1="11.0638" y1="17.2464" x2="11.0638" y2="21.1827" gradientUnits="userSpaceOnUse">
<stop stop-color="#3D3D3D"/>
<stop offset="1" stop-color="#262626"/>
</linearGradient>
<linearGradient id="paint10_linear_293_7960" x1="12.305" y1="17.2464" x2="12.305" y2="21.1827" gradientUnits="userSpaceOnUse">
<stop stop-color="#3D3D3D"/>
<stop offset="1" stop-color="#262626"/>
</linearGradient>
<linearGradient id="paint11_linear_293_7960" x1="17.8453" y1="9.89581" x2="17.8453" y2="25.7628" gradientUnits="userSpaceOnUse">
<stop stop-color="#44C9E1"/>
<stop offset="1" stop-color="#40D437"/>
</linearGradient>
<clipPath id="clip0_293_7960">
<rect width="26" height="26" fill="white"/>
</clipPath>
</defs>
</svg>
