<svg width="24" height="24" viewBox="0 0 24 24" fill="none" xmlns="http://www.w3.org/2000/svg">
<g id="Password">
<g id="Group 162359">
<path id="Vector" d="M13.4418 20.1037C13.484 20.1459 13.5341 20.1794 13.5892 20.2022C13.6443 20.2251 13.7034 20.2369 13.7631 20.2369C13.8228 20.2369 13.8819 20.2251 13.9371 20.2022C13.9922 20.1794 14.0423 20.1459 14.0845 20.1037L14.2727 19.9155V20.1818C14.2727 20.3024 14.3206 20.418 14.4059 20.5032C14.4911 20.5885 14.6067 20.6364 14.7273 20.6364C14.8478 20.6364 14.9634 20.5885 15.0487 20.5032C15.1339 20.418 15.1818 20.3024 15.1818 20.1818V19.9155L15.37 20.1037C15.4558 20.1865 15.5706 20.2323 15.6898 20.2313C15.8089 20.2302 15.923 20.1824 16.0072 20.0981C16.0915 20.0139 16.1393 19.8999 16.1403 19.7807C16.1414 19.6615 16.0956 19.5467 16.0128 19.461L15.37 18.8182L16.0128 18.1754C16.0956 18.0897 16.1414 17.9749 16.1403 17.8557C16.1393 17.7365 16.0915 17.6225 16.0072 17.5382C15.923 17.4539 15.8089 17.4061 15.6898 17.4051C15.5706 17.4041 15.4558 17.4499 15.37 17.5327L15.1818 17.7209V17.4545C15.1818 17.334 15.1339 17.2184 15.0487 17.1331C14.9634 17.0479 14.8478 17 14.7273 17C14.6067 17 14.4911 17.0479 14.4059 17.1331C14.3206 17.2184 14.2727 17.334 14.2727 17.4545V17.7209L14.0845 17.5327C13.9988 17.4499 13.8839 17.4041 13.7648 17.4051C13.6456 17.4061 13.5316 17.4539 13.4473 17.5382C13.363 17.6225 13.3152 17.7365 13.3142 17.8557C13.3132 17.9749 13.359 18.0897 13.4418 18.1754L14.0845 18.8182L13.4418 19.461C13.3566 19.5462 13.3087 19.6618 13.3087 19.7823C13.3087 19.9028 13.3566 20.0184 13.4418 20.1037ZM17.5327 20.1037C17.5749 20.1459 17.625 20.1794 17.6801 20.2022C17.7352 20.2251 17.7944 20.2369 17.854 20.2369C17.9137 20.2369 17.9728 20.2251 18.028 20.2022C18.0831 20.1794 18.1332 20.1459 18.1754 20.1037L18.3636 19.9155V20.1818C18.3636 20.3024 18.4115 20.418 18.4968 20.5032C18.582 20.5885 18.6976 20.6364 18.8182 20.6364C18.9387 20.6364 19.0543 20.5885 19.1396 20.5032C19.2248 20.418 19.2727 20.3024 19.2727 20.1818V19.9155L19.4609 20.1037C19.5467 20.1865 19.6615 20.2323 19.7807 20.2313C19.8999 20.2302 20.0139 20.1824 20.0981 20.0981C20.1824 20.0139 20.2302 19.8999 20.2313 19.7807C20.2323 19.6615 20.1865 19.5467 20.1037 19.461L19.4609 18.8182L20.1037 18.1754C20.1865 18.0897 20.2323 17.9749 20.2313 17.8557C20.2302 17.7365 20.1824 17.6225 20.0981 17.5382C20.0139 17.4539 19.8999 17.4061 19.7807 17.4051C19.6615 17.4041 19.5467 17.4499 19.4609 17.5327L19.2727 17.7209V17.4545C19.2727 17.334 19.2248 17.2184 19.1396 17.1331C19.0543 17.0479 18.9387 17 18.8182 17C18.6976 17 18.582 17.0479 18.4968 17.1331C18.4115 17.2184 18.3636 17.334 18.3636 17.4545V17.7209L18.1754 17.5327C18.0897 17.4499 17.9749 17.4041 17.8557 17.4051C17.7365 17.4061 17.6225 17.4539 17.5382 17.5382C17.4539 17.6225 17.4061 17.7365 17.4051 17.8557C17.4041 17.9749 17.4499 18.0897 17.5327 18.1754L18.1754 18.8182L17.5327 19.461C17.4475 19.5462 17.3996 19.6618 17.3996 19.7823C17.3996 19.9028 17.4475 20.0184 17.5327 20.1037ZM9.35086 20.1037C9.39305 20.1459 9.44315 20.1794 9.49829 20.2022C9.55343 20.2251 9.61253 20.2369 9.67222 20.2369C9.73191 20.2369 9.79101 20.2251 9.84615 20.2022C9.9013 20.1794 9.95139 20.1459 9.99358 20.1037L10.1818 19.9155V20.1818C10.1818 20.3024 10.2297 20.418 10.3149 20.5032C10.4002 20.5885 10.5158 20.6364 10.6364 20.6364C10.7569 20.6364 10.8725 20.5885 10.9578 20.5032C11.043 20.418 11.0909 20.3024 11.0909 20.1818V19.9155L11.2791 20.1037C11.3649 20.1865 11.4797 20.2323 11.5989 20.2313C11.718 20.2302 11.832 20.1824 11.9163 20.0981C12.0006 20.0139 12.0484 19.8999 12.0494 19.7807C12.0505 19.6615 12.0047 19.5467 11.9219 19.461L11.2791 18.8182L11.9219 18.1754C12.0047 18.0897 12.0505 17.9749 12.0494 17.8557C12.0484 17.7365 12.0006 17.6225 11.9163 17.5382C11.832 17.4539 11.718 17.4061 11.5989 17.4051C11.4797 17.4041 11.3649 17.4499 11.2791 17.5327L11.0909 17.7209V17.4545C11.0909 17.334 11.043 17.2184 10.9578 17.1331C10.8725 17.0479 10.7569 17 10.6364 17C10.5158 17 10.4002 17.0479 10.3149 17.1331C10.2297 17.2184 10.1818 17.334 10.1818 17.4545V17.7209L9.99358 17.5327C9.90786 17.4499 9.79304 17.4041 9.67386 17.4051C9.55468 17.4061 9.44067 17.4539 9.3564 17.5382C9.27212 17.6225 9.22431 17.7365 9.22328 17.8557C9.22224 17.9749 9.26806 18.0897 9.35086 18.1754L9.99358 18.8182L9.35086 19.461C9.26564 19.5462 9.21777 19.6618 9.21777 19.7823C9.21777 19.9028 9.26564 20.0184 9.35086 20.1037Z" fill="#0A1214"/>
<path id="Vector_2" d="M21.0909 15.6364H16.5455V9.27273C16.5449 8.79067 16.3532 8.3285 16.0124 7.98764C15.6715 7.64677 15.2093 7.45505 14.7273 7.45455H13.8182V5.18182C13.8172 4.33825 13.4817 3.5295 12.8852 2.93301C12.2887 2.33651 11.4799 2.00097 10.6364 2H7.90909C7.06552 2.00097 6.25678 2.33651 5.66028 2.93301C5.06379 3.5295 4.72825 4.33825 4.72727 5.18182V7.45455H3.81818C3.33613 7.45505 2.87396 7.64677 2.53309 7.98764C2.19223 8.3285 2.00051 8.79067 2 9.27273V18.3636C2.00047 18.8457 2.19218 19.3079 2.53305 19.6488C2.87393 19.9896 3.33611 20.1813 3.81818 20.1818H7.45455V21.0909C7.45487 21.3319 7.55075 21.563 7.72117 21.7334C7.89159 21.9038 8.12263 21.9997 8.36364 22H21.0909C21.3319 21.9997 21.563 21.9038 21.7334 21.7334C21.9038 21.563 21.9997 21.3319 22 21.0909V16.5455C21.9997 16.3044 21.9038 16.0734 21.7334 15.903C21.563 15.7326 21.3319 15.6367 21.0909 15.6364ZM5.63636 5.18182C5.63707 4.57927 5.87675 4.00161 6.30281 3.57554C6.72888 3.14948 7.30654 2.9098 7.90909 2.90909H10.6364C11.2389 2.9098 11.8166 3.14948 12.2426 3.57554C12.6687 4.00161 12.9084 4.57927 12.9091 5.18182V7.45455H5.63636V5.18182ZM3.81818 19.2727C3.57718 19.2724 3.34613 19.1765 3.17572 19.0061C3.0053 18.8357 2.90942 18.6046 2.90909 18.3636V9.27273C2.90937 9.03171 3.00524 8.80064 3.17566 8.63021C3.34609 8.45978 3.57716 8.36391 3.81818 8.36364H14.7273C14.9683 8.36391 15.1994 8.45978 15.3698 8.63021C15.5402 8.80064 15.6361 9.03171 15.6364 9.27273V15.6364H8.36364C8.12263 15.6367 7.89159 15.7326 7.72117 15.903C7.55075 16.0734 7.45487 16.3044 7.45455 16.5455V19.2727H3.81818ZM21.0909 21.0909H8.36364V16.5455L21.0909 16.5468V21.0909Z" fill="#0A1214"/>
</g>
</g>
</svg>
