<svg width="20" height="21" viewBox="0 0 20 21" fill="none" xmlns="http://www.w3.org/2000/svg">
<g id="profile">
<path id="Vector" d="M8.23713 12.5661C9.43427 12.4635 10.6379 12.4635 11.8351 12.5661C12.4897 12.61 13.1399 12.7056 13.7797 12.8521C15.1635 13.1307 16.0666 13.6807 16.4454 14.4872C16.748 15.1573 16.7399 15.928 16.4235 16.5916C16.0375 17.3982 15.1344 17.9481 13.7287 18.2341C13.0911 18.3776 12.4434 18.4708 11.7914 18.5127C11.0703 18.5934 10.4585 18.5934 9.89043 18.5934H9.66465C9.34281 18.5585 9.09884 18.285 9.09884 17.9591C9.09884 17.6332 9.34281 17.3597 9.66465 17.3249L10.163 17.3247C10.6625 17.3189 11.165 17.2955 11.6675 17.2515C12.2604 17.2127 12.8496 17.1294 13.4301 17.0022C14.4279 16.7823 15.0543 16.467 15.2509 16.049C15.4039 15.7293 15.4039 15.3569 15.2509 15.0371C15.0543 14.6119 14.4279 14.2819 13.4519 14.0839C12.8624 13.9508 12.2633 13.865 11.6603 13.8273C10.5337 13.7246 9.40015 13.7246 8.27354 13.8273C7.67828 13.8661 7.0867 13.9495 6.50371 14.0766C5.50591 14.2966 4.88683 14.6119 4.6829 15.0298C4.61064 15.1885 4.57337 15.3611 4.57365 15.5358C4.57324 15.7127 4.61049 15.8877 4.6829 16.049C5.02955 16.5257 5.55697 16.8363 6.13955 16.9069L6.22407 16.9298C6.41573 16.9964 6.56618 17.1525 6.62479 17.3516C6.69177 17.5792 6.62773 17.8253 6.45854 17.9906C6.28936 18.1559 6.04301 18.213 5.81909 18.1388C4.8801 17.9846 4.05655 17.4212 3.56856 16.599C3.25498 15.933 3.25498 15.1605 3.56856 14.4946C3.95457 13.666 4.85769 13.1307 6.2488 12.8448C6.90375 12.7021 7.56838 12.609 8.23713 12.5661ZM8.30397 2.26604C9.9623 1.5753 11.8707 1.95869 13.1386 3.23732C14.4066 4.51594 14.7843 6.43781 14.0955 8.10619C13.4066 9.77457 11.787 10.8607 9.99239 10.8577C7.54558 10.8536 5.56417 8.85558 5.56417 6.39225L5.56829 6.19939C5.64215 4.47035 6.70487 2.9321 8.30397 2.26604ZM9.99239 3.20265C9.15087 3.20071 8.34315 3.5359 7.74742 4.13427C7.15168 4.73265 6.81688 5.54505 6.81688 6.39225C6.81395 7.68595 7.58576 8.85392 8.77213 9.35105C9.95849 9.84818 11.3255 9.57648 12.2352 8.66275C13.1449 7.74901 13.4179 6.37338 12.9269 5.17787C12.4358 3.98236 11.2774 3.20265 9.99239 3.20265Z" fill="url(#paint0_linear_5_12743)"/>
</g>
<defs>
<linearGradient id="paint0_linear_5_12743" x1="3.33337" y1="3.26598" x2="17.6527" y2="4.37507" gradientUnits="userSpaceOnUse">
<stop stop-color="#44C9E1"/>
<stop offset="1" stop-color="#F59022"/>
</linearGradient>
</defs>
</svg>
