<svg width="24" height="24" viewBox="0 0 24 24" fill="none" xmlns="http://www.w3.org/2000/svg">
<g id="Recommendation">
<path id="Vector" d="M10.875 10.1891L9.15523 8.46973L8.09473 9.53023L10.875 12.3109L15.9052 7.28023L14.8447 6.21973L10.875 10.1891Z" fill="#0A1214"/>
<path id="Vector_2" d="M20.25 9C20.25 4.4445 16.5566 0.75 12 0.75C7.44487 0.75 3.75 4.4445 3.75 9C3.75 12.1579 5.526 14.9006 8.133 16.2874L7.5 23.25L12 20.25L16.5 23.25L15.867 16.2877C18.4744 14.901 20.25 12.1579 20.25 9ZM12 16.5C7.85775 16.5 4.5 13.1423 4.5 9C4.5 4.85775 7.85775 1.5 12 1.5C16.1423 1.5 19.5 4.85775 19.5 9C19.5 13.1423 16.1423 16.5 12 16.5Z" fill="#0A1214"/>
</g>
</svg>
