<svg width="24" height="24" viewBox="0 0 24 24" fill="none" xmlns="http://www.w3.org/2000/svg">
<g id="Settings">
<path id="Vector" d="M12 9C10.3431 9 9 10.3431 9 12C9 13.6569 10.3431 15 12 15C13.6569 15 15 13.6569 15 12C15 10.3431 13.6569 9 12 9ZM10.5 12C10.5 11.1716 11.1716 10.5 12 10.5C12.8284 10.5 13.5 11.1716 13.5 12C13.5 12.8284 12.8284 13.5 12 13.5C11.1716 13.5 10.5 12.8284 10.5 12Z" fill="#0A1214"/>
<path id="Vector_2" d="M15.927 6.5975C15.3495 6.70238 14.7959 6.3212 14.6906 5.74611L14.301 3.62244C14.2622 3.41141 14.0994 3.24452 13.8887 3.19988C13.2723 3.06932 12.6403 3.00293 12 3.00293C11.3593 3.00293 10.727 3.06941 10.1102 3.20012C9.8994 3.2448 9.73656 3.41178 9.69794 3.62291L9.30944 5.7462C9.2991 5.80266 9.28413 5.85827 9.26471 5.9124C9.06714 6.46289 8.4588 6.74967 7.90593 6.55295L5.86673 5.82695C5.66405 5.75478 5.43767 5.81147 5.29337 5.9705C4.44008 6.91094 3.79338 8.02062 3.4008 9.22953C3.33458 9.43349 3.39843 9.65708 3.56253 9.7958L5.21541 11.1931C5.25939 11.2303 5.30028 11.271 5.33765 11.3148C5.71766 11.7604 5.66292 12.4284 5.2154 12.8067L3.56253 14.204C3.39843 14.3427 3.33458 14.5663 3.4008 14.7703C3.79338 15.9792 4.44008 17.0889 5.29337 18.0294C5.43767 18.1884 5.66405 18.2451 5.86673 18.173L7.90602 17.4468C7.96031 17.4276 8.01615 17.4126 8.07294 17.4023C8.65052 17.2974 9.20412 17.6786 9.30945 18.2537L9.69794 20.3769C9.73656 20.5881 9.8994 20.7551 10.1102 20.7998C10.727 20.9304 11.3593 20.9969 12 20.9969C12.6403 20.9969 13.2723 20.9306 13.8887 20.7999C14.0994 20.7554 14.2622 20.5884 14.301 20.3774L14.6905 18.2538C14.7009 18.1971 14.7159 18.1416 14.7353 18.0875C14.9329 17.537 15.5412 17.2502 16.0941 17.4468L18.1332 18.173C18.336 18.2451 18.5624 18.1884 18.7067 18.0294C19.56 17.0889 20.2066 15.9792 20.5992 14.7703C20.6655 14.5663 20.6016 14.3427 20.4375 14.204L18.7847 12.8067C18.7406 12.7695 18.6998 12.7288 18.6624 12.685C18.2823 12.2394 18.3371 11.5714 18.7847 11.1931L20.4375 9.7958C20.6016 9.65708 20.6655 9.43349 20.5992 9.22953C20.2066 8.02062 19.56 6.91094 18.7067 5.9705C18.5624 5.81147 18.336 5.75478 18.1332 5.82695L16.094 6.55298C16.0397 6.57228 15.9839 6.58719 15.927 6.5975ZM5.99795 7.46589L7.40283 7.96605C8.73026 8.43839 10.1981 7.75223 10.6765 6.4191C10.7235 6.28811 10.7599 6.15315 10.7849 6.01617L11.0511 4.5617C11.3636 4.52268 11.6803 4.50293 12 4.50293C12.3195 4.50293 12.636 4.52265 12.9482 4.56161L13.2152 6.01676C13.4708 7.4112 14.809 8.32505 16.1951 8.07338C16.3316 8.04858 16.4663 8.01264 16.5971 7.9661L18.0021 7.46589C18.3846 7.96626 18.7026 8.51215 18.9479 9.09096L17.8161 10.0476C16.7349 10.9618 16.6013 12.5797 17.5211 13.6583C17.6112 13.7641 17.7101 13.8625 17.8163 13.9523L18.9479 14.9089C18.7026 15.4877 18.3846 16.0335 18.0021 16.5339L16.5969 16.0337C15.2696 15.5613 13.8019 16.2476 13.3235 17.5808C13.2764 17.7117 13.2402 17.8467 13.2151 17.9837L12.9482 19.4382C12.636 19.4772 12.3195 19.4969 12 19.4969C11.6803 19.4969 11.3636 19.4772 11.0511 19.4381L10.7849 17.9835C10.5295 16.5888 9.19115 15.6747 7.80495 15.9264C7.66841 15.9513 7.53375 15.9872 7.40292 16.0338L5.99795 16.5339C5.61536 16.0335 5.29742 15.4877 5.05221 14.9089L6.18386 13.9522C7.26515 13.038 7.39881 11.4201 6.479 10.3415C6.38876 10.2357 6.28998 10.1373 6.18381 10.0476L5.05221 9.09096C5.29742 8.51215 5.61536 7.96626 5.99795 7.46589Z" fill="#0A1214"/>
</g>
</svg>
