<svg width="20" height="21" viewBox="0 0 20 21" fill="none" xmlns="http://www.w3.org/2000/svg">
<g id="vuesax/outline/sms-tracking">
<g id="vuesax/outline/sms-tracking_2">
<g id="sms-tracking">
<path id="Vector" d="M14.1667 18.2083H5.83335C5.49169 18.2083 5.20835 17.925 5.20835 17.5833C5.20835 17.2416 5.49169 16.9583 5.83335 16.9583H14.1667C16.55 16.9583 17.7084 15.8 17.7084 13.4166V7.58329C17.7084 5.19996 16.55 4.04163 14.1667 4.04163H5.83335C3.45002 4.04163 2.29169 5.19996 2.29169 7.58329C2.29169 7.92496 2.00835 8.20829 1.66669 8.20829C1.32502 8.20829 1.04169 7.92496 1.04169 7.58329C1.04169 4.54163 2.79169 2.79163 5.83335 2.79163H14.1667C17.2084 2.79163 18.9584 4.54163 18.9584 7.58329V13.4166C18.9584 16.4583 17.2084 18.2083 14.1667 18.2083Z" fill="url(#paint0_linear_5_12169)"/>
<path id="Vector_2" d="M9.99979 11.225C9.29979 11.225 8.59146 11.0083 8.0498 10.5666L5.44146 8.48331C5.17479 8.26664 5.1248 7.87497 5.34146 7.60831C5.55813 7.34164 5.94979 7.29164 6.21645 7.50831L8.82479 9.59164C9.45812 10.1 10.5331 10.1 11.1665 9.59164L13.7748 7.50831C14.0415 7.29164 14.4414 7.33331 14.6498 7.60831C14.8664 7.87497 14.8248 8.27498 14.5498 8.48331L11.9414 10.5666C11.4081 11.0083 10.6998 11.225 9.99979 11.225Z" fill="url(#paint1_linear_5_12169)"/>
<path id="Vector_3" d="M6.66669 14.875H1.66669C1.32502 14.875 1.04169 14.5917 1.04169 14.25C1.04169 13.9083 1.32502 13.625 1.66669 13.625H6.66669C7.00835 13.625 7.29169 13.9083 7.29169 14.25C7.29169 14.5917 7.00835 14.875 6.66669 14.875Z" fill="url(#paint2_linear_5_12169)"/>
<path id="Vector_4" d="M4.16669 11.5416H1.66669C1.32502 11.5416 1.04169 11.2583 1.04169 10.9166C1.04169 10.575 1.32502 10.2916 1.66669 10.2916H4.16669C4.50835 10.2916 4.79169 10.575 4.79169 10.9166C4.79169 11.2583 4.50835 11.5416 4.16669 11.5416Z" fill="url(#paint3_linear_5_12169)"/>
</g>
</g>
</g>
<defs>
<linearGradient id="paint0_linear_5_12169" x1="1.04169" y1="4.03047" x2="20.1567" y2="6.18124" gradientUnits="userSpaceOnUse">
<stop stop-color="#44C9E1"/>
<stop offset="1" stop-color="#F59022"/>
</linearGradient>
<linearGradient id="paint1_linear_5_12169" x1="5.20587" y1="7.67988" x2="14.9915" y2="10.0349" gradientUnits="userSpaceOnUse">
<stop stop-color="#44C9E1"/>
<stop offset="1" stop-color="#F59022"/>
</linearGradient>
<linearGradient id="paint2_linear_5_12169" x1="1.04169" y1="13.7254" x2="6.51219" y2="16.3736" gradientUnits="userSpaceOnUse">
<stop stop-color="#44C9E1"/>
<stop offset="1" stop-color="#F59022"/>
</linearGradient>
<linearGradient id="paint3_linear_5_12169" x1="1.04169" y1="10.3921" x2="4.77796" y2="11.4773" gradientUnits="userSpaceOnUse">
<stop stop-color="#44C9E1"/>
<stop offset="1" stop-color="#F59022"/>
</linearGradient>
</defs>
</svg>
