<svg width="16" height="16" viewBox="0 0 16 16" fill="none" xmlns="http://www.w3.org/2000/svg">
<path d="M3.64956 9.83312L6.16623 12.3498C7.19956 13.3831 8.87734 13.3831 9.91623 12.3498L12.3551 9.91089C13.3885 8.87756 13.3885 7.19978 12.3551 6.16089L9.83289 3.64978C9.30512 3.12201 8.57734 2.83867 7.83289 2.87756L5.05512 3.01089C3.94401 3.06089 3.06067 3.94423 3.00512 5.04978L2.87178 7.82756C2.83845 8.57756 3.12178 9.30534 3.64956 9.83312Z" stroke="white" stroke-width="0.75" stroke-linecap="round" stroke-linejoin="round"/>
<path d="M6.61057 7.99946C7.37763 7.99946 7.99946 7.37763 7.99946 6.61057C7.99946 5.84351 7.37763 5.22168 6.61057 5.22168C5.84351 5.22168 5.22168 5.84351 5.22168 6.61057C5.22168 7.37763 5.84351 7.99946 6.61057 7.99946Z" stroke="white" stroke-width="0.75" stroke-linecap="round"/>
</svg>
